<svg xmlns="http://www.w3.org/2000/svg" viewBox="0 0 241.54 93.03"><defs><style>.cls-1{fill:#00d45f;}.cls-2{fill:#fff;}.cls-3{fill:none;stroke:#00d45f;stroke-linecap:round;stroke-linejoin:round;stroke-width:4px;}</style></defs><g id="Layer_2" data-name="Layer 2"><g id="Layer_1-2" data-name="Layer 1"><rect class="cls-1" width="241.54" height="93.03" rx="46.51"/><circle class="cls-2" cx="59.72" cy="48.08" r="28.14"/><polygon class="cls-3" points="51.54 32.22 51.54 63.22 78.54 48.22 51.54 32.22"/><path class="cls-2" d="M132.43,39.54c0,5.14-2.69,10.08-9.6,10.08h-9.7V62.53H110V29.46h13C129.74,29.46,132.43,34.45,132.43,39.54Zm-3.17,0c0-3.55-1.78-7.11-6.34-7.11h-9.79V46.64h9.55C127.44,46.64,129.26,43.14,129.26,39.54Z"/><path class="cls-2" d="M138,27.49h3.07v35H138Z"/><path class="cls-2" d="M170.64,40.12V62.53h-3.08V58.17A10,10,0,0,1,158.63,63,11.35,11.35,0,0,1,147.26,51.3a11.28,11.28,0,0,1,11.37-11.66,10,10,0,0,1,8.93,4.8V40.12ZM167.56,51.4a8.62,8.62,0,0,0-8.69-8.84,8.76,8.76,0,1,0,8.69,8.84Z"/><path class="cls-2" d="M197.52,40.12,183.45,73.43h-3.26l4.6-11.18-9.26-22.13h3.31l7.63,18.33,7.73-18.33Z"/></g></g></svg>