<svg xmlns="http://www.w3.org/2000/svg" viewBox="0 0 260.46 93.03"><defs><style>.cls-1{fill:#00d45f;}.cls-2{fill:#fff;}.cls-3{fill:none;stroke:#00d45f;stroke-linecap:round;stroke-linejoin:round;stroke-width:4px;}</style></defs><g id="Layer_2" data-name="Layer 2"><g id="Layer_1-2" data-name="Layer 1"><rect class="cls-1" width="260.46" height="93.03" rx="46.51"/><circle class="cls-2" cx="59.72" cy="48.08" r="28.14"/><polygon class="cls-3" points="51.54 32.22 51.54 63.22 78.54 48.22 51.54 32.22"/><path class="cls-2" d="M112.68,55.91h3.12c.33,3.26,3.31,6.38,8,6.38,5.28,0,7.92-3.36,7.92-6.48,0-3.6-3.22-5.33-6.48-6.14l-4.47-1.06c-6.81-1.63-7.82-5.62-7.82-8.26,0-5.47,5-9,10.51-9s10.08,3.45,10.27,9h-3.16c-.2-3.64-3.22-6-7.21-6-3.74,0-7.24,2.36-7.24,6.05,0,1.54.48,4.18,5.42,5.33L126,46.74c5.23,1.29,8.88,4.13,8.88,8.93,0,4.65-3.84,9.6-11.09,9.6C117.29,65.27,112.92,60.71,112.68,55.91Z"/><path class="cls-2" d="M150.55,45h-5.14V64.79h-3V45h-4.08V42.37h4.08V33.44h3v8.93h5.14Z"/><path class="cls-2" d="M176.62,42.37V64.79h-3.08V60.42a10,10,0,0,1-8.92,4.85,11.36,11.36,0,0,1-11.38-11.72,11.29,11.29,0,0,1,11.38-11.66,10,10,0,0,1,8.92,4.8V42.37Zm-3.08,11.28a8.62,8.62,0,1,0-8.68,8.69A8.61,8.61,0,0,0,173.54,53.65Z"/><path class="cls-2" d="M198,42.56l-.58,2.93a7.92,7.92,0,0,0-3-.63c-5.32,0-7,6-7,11.48v8.45h-3.12V42.37h3.12v5.47c1.11-3.79,3.51-6,7-6A8.94,8.94,0,0,1,198,42.56Z"/><path class="cls-2" d="M211.94,45h-5.13V64.79h-3V45H199.7V42.37h4.08V33.44h3v8.93h5.13Z"/></g></g></svg>