<?xml version="1.0" standalone="no"?><svg xmlns="http://www.w3.org/2000/svg" preserveAspectRatio="none" viewBox="0 0 1440 320"><path fill="#AAD1FC" fill-opacity="1" d="M0,160L34.3,154.7C68.6,149,137,139,206,112C274.3,85,343,43,411,21.3C480,0,549,0,617,37.3C685.7,75,754,149,823,186.7C891.4,224,960,224,1029,192C1097.1,160,1166,96,1234,85.3C1302.9,75,1371,117,1406,138.7L1440,160L1440,320L1405.7,320C1371.4,320,1303,320,1234,320C1165.7,320,1097,320,1029,320C960,320,891,320,823,320C754.3,320,686,320,617,320C548.6,320,480,320,411,320C342.9,320,274,320,206,320C137.1,320,69,320,34,320L0,320Z"></path></svg>