<?xml version="1.0" encoding="UTF-8" standalone="no"?>
<svg
   xmlns:dc="http://purl.org/dc/elements/1.1/"
   xmlns:cc="http://creativecommons.org/ns#"
   xmlns:rdf="http://www.w3.org/1999/02/22-rdf-syntax-ns#"
   xmlns:svg="http://www.w3.org/2000/svg"
   xmlns="http://www.w3.org/2000/svg"
   xmlns:sodipodi="http://sodipodi.sourceforge.net/DTD/sodipodi-0.dtd"
   xmlns:inkscape="http://www.inkscape.org/namespaces/inkscape"
   inkscape:version="1.0 (4035a4f, 2020-05-01)"
   sodipodi:docname="Home-01.svg"
   version="1.1"
   viewBox="0 0 1920 1080"
   data-name="Layer 1"
   id="Layer_1">
  <metadata
     id="metadata663">
    <rdf:RDF>
      <cc:Work
         rdf:about="">
        <dc:format>image/svg+xml</dc:format>
        <dc:type
           rdf:resource="http://purl.org/dc/dcmitype/StillImage" />
      </cc:Work>
    </rdf:RDF>
  </metadata>
  <defs
     id="defs661" />
  <sodipodi:namedview
     inkscape:current-layer="Layer_1"
     inkscape:window-maximized="0"
     inkscape:window-y="23"
     inkscape:window-x="0"
     inkscape:cy="540"
     inkscape:cx="960"
     inkscape:zoom="0.56296296"
     showgrid="false"
     id="namedview659"
     inkscape:window-height="798"
     inkscape:window-width="1440"
     inkscape:pageshadow="2"
     inkscape:pageopacity="0"
     guidetolerance="10"
     gridtolerance="10"
     objecttolerance="10"
     borderopacity="1"
     bordercolor="#666666"
     pagecolor="#ffffff" />
  <path
     style="fill:#ffffff"
     id="path10"
     d="M186.94,490.25h-4.32v12.48h-4.37V469.66h12.44c7.2,0,10,5.18,10,10.32,0,4.8-2.4,9.6-8.64,10.22l8.79,12.53h-5.24Zm-4.32-4h6.91c4.85,0,6.77-2.55,6.77-6.29s-2.16-6.29-5.52-6.29h-8.16Z" />
  <path
     style="fill:#ffffff"
     id="path12"
     d="M227.12,493.32H208.88c.62,4,3.5,6,7.34,6a7.24,7.24,0,0,0,6.53-3.41l3.65,1.44a11.22,11.22,0,0,1-10.32,5.9c-6.39,0-11.52-4.65-11.52-11.76a11.14,11.14,0,0,1,11.52-11.62c6.38,0,11.14,4.52,11.14,11.62C227.22,492.07,227.17,492.7,227.12,493.32Zm-4.08-3.6c-.53-3.84-3.26-6-7-6s-6.48,1.92-7.15,6Z" />
  <path
     style="fill:#ffffff"
     id="path14"
     d="M232.88,468.07h4.18v34.66h-4.18Z" />
  <path
     style="fill:#ffffff"
     id="path16"
     d="M243.44,472.06a3,3,0,1,1,2.93,2.78A2.85,2.85,0,0,1,243.44,472.06Zm.86,8.25h4.18v22.42H244.3Z" />
  <path
     style="fill:#ffffff"
     id="path18"
     d="M276.75,493.32H258.51c.62,4,3.51,6,7.35,6a7.22,7.22,0,0,0,6.52-3.41l3.65,1.44a11.22,11.22,0,0,1-10.32,5.9c-6.38,0-11.52-4.65-11.52-11.76a11.15,11.15,0,0,1,11.52-11.62c6.39,0,11.14,4.52,11.14,11.62C276.85,492.07,276.8,492.7,276.75,493.32Zm-4.08-3.6c-.53-3.84-3.26-6-7-6s-6.48,1.92-7.15,6Z" />
  <path
     style="fill:#ffffff"
     id="path20"
     d="M301.71,480.31l-9.36,22.42h-4.08L279,480.31h4.46l6.92,17.09,6.86-17.09Z" />
  <path
     style="fill:#ffffff"
     id="path22"
     d="M326.53,493.32H308.29c.62,4,3.5,6,7.34,6a7.24,7.24,0,0,0,6.53-3.41l3.65,1.44a11.22,11.22,0,0,1-10.32,5.9c-6.39,0-11.52-4.65-11.52-11.76a11.14,11.14,0,0,1,11.52-11.62c6.38,0,11.13,4.52,11.13,11.62C326.62,492.07,326.58,492.7,326.53,493.32Zm-4.08-3.6c-.53-3.84-3.27-6-7-6s-6.48,1.92-7.15,6Z" />
  <path
     style="fill:#ffffff"
     id="path24"
     d="M367.81,491.55c0,7.1-5,11.66-11.19,11.66-3.36,0-6.52-1.34-8-4v14.4h-4.18V480.31h4.18v3.56c1.49-2.6,4.75-4,8-4C362.72,479.83,367.81,484.49,367.81,491.55Zm-4.23,0a7.49,7.49,0,1,0-15,0,7.58,7.58,0,0,0,7.58,7.69A7.35,7.35,0,0,0,363.58,491.59Z" />
  <path
     style="fill:#ffffff"
     id="path26"
     d="M395.5,480.31v22.42h-4.17v-3.55c-1.49,2.59-4.75,4-8,4-6.15,0-11.23-4.65-11.23-11.71s5-11.67,11.18-11.67c3.36,0,6.53,1.35,8,4v-3.51Zm-4.17,11.14a7.59,7.59,0,0,0-7.64-7.68,7.34,7.34,0,0,0-7.34,7.68c0,4.47,3.26,7.83,7.34,7.83A7.55,7.55,0,0,0,391.33,491.45Z" />
  <path
     style="fill:#ffffff"
     id="path28"
     d="M401.93,472.06a3,3,0,1,1,2.93,2.78A2.85,2.85,0,0,1,401.93,472.06Zm.87,8.25H407v22.42H402.8Z" />
  <path
     style="fill:#ffffff"
     id="path30"
     d="M434.86,489.77v13h-4.17V490c0-3.74-2.31-6.05-5.43-6.05s-6.86,1.78-6.86,6.63v12.14h-4.18V480.31h4.18v3.41c1.34-2.73,5-3.89,7.44-3.89C431.41,479.83,434.91,483.48,434.86,489.77Z" />
  <path
     style="fill:#ffffff"
     id="path32"
     d="M475.85,480.31v22.42h-4.17v-3.55c-1.49,2.59-4.75,4-8,4-6.15,0-11.23-4.65-11.23-11.71s5-11.67,11.18-11.67c3.36,0,6.53,1.35,8,4v-3.51Zm-4.17,11.14a7.59,7.59,0,0,0-7.63-7.68,7.34,7.34,0,0,0-7.35,7.68,7.5,7.5,0,1,0,15,0Z" />
  <path
     style="fill:#ffffff"
     id="path34"
     d="M503.79,489.77v13h-4.18V490c0-3.74-2.3-6.05-5.42-6.05s-6.87,1.78-6.87,6.63v12.14h-4.17V480.31h4.17v3.41c1.35-2.73,5-3.89,7.45-3.89C500.33,479.83,503.84,483.48,503.79,489.77Z" />
  <path
     style="fill:#ffffff"
     id="path36"
     d="M532.64,468.07v34.66h-4.18v-3.55c-1.49,2.59-4.75,4-8,4-6.14,0-11.23-4.65-11.23-11.71s5-11.67,11.18-11.67c3.37,0,6.53,1.35,8,4V468.07Zm-4.18,23.38a7.59,7.59,0,0,0-7.63-7.68,7.34,7.34,0,0,0-7.35,7.68,7.5,7.5,0,1,0,15,0Z" />
  <path
     style="fill:#ffffff"
     id="path38"
     d="M173.65,508.73v-2.4H536.28v2.4Z" />
  <path
     style="fill:#ffffff"
     id="path40"
     d="M191.7,540.7l-.68,3.93a7.82,7.82,0,0,0-3.26-.76c-4.47,0-6.24,4.75-6.24,10.65v8.21h-4.23V540.31h4.23v5.09c1.15-3.93,3.31-5.57,6.29-5.57A8.53,8.53,0,0,1,191.7,540.7Z" />
  <path
     style="fill:#ffffff"
     id="path42"
     d="M216.22,553.32H198c.63,4,3.51,6,7.35,6a7.25,7.25,0,0,0,6.53-3.41l3.64,1.44a11.21,11.21,0,0,1-10.32,5.9c-6.38,0-11.52-4.66-11.52-11.76a11.15,11.15,0,0,1,11.52-11.62c6.39,0,11.14,4.52,11.14,11.62C216.32,552.07,216.27,552.7,216.22,553.32Zm-4.08-3.6c-.52-3.84-3.26-6-7-6s-6.48,1.92-7.15,6Z" />
  <path
     style="fill:#ffffff"
     id="path44"
     d="M222,528.07h4.18v34.66H222Z" />
  <path
     style="fill:#ffffff"
     id="path46"
     d="M255.29,540.31v22.42h-4.17v-3.55c-1.49,2.59-4.75,4-8,4-6.14,0-11.23-4.66-11.23-11.71s5-11.67,11.18-11.67c3.36,0,6.53,1.35,8,4v-3.51Zm-4.17,11.14a7.59,7.59,0,0,0-7.63-7.68,7.34,7.34,0,0,0-7.35,7.68,7.5,7.5,0,1,0,15,0Z" />
  <path
     style="fill:#ffffff"
     id="path48"
     d="M277,562.73,270.7,554l-6.38,8.78h-5l8.89-12.34L261,540.31h5l4.7,6.68,4.71-6.68h5.08l-7.29,10.13L282,562.73Z" />
  <path
     style="fill:#ffffff"
     id="path50"
     d="M304.25,537.39v2.92h5.23v3.6h-5.23v18.82h-4.17V543.91h-4.32v-3.6h4.32V538c0-5.86,2.44-9.89,8.44-9.89h2.4V532h-1.68C305.26,532,304.2,534.46,304.25,537.39Z" />
  <path
     style="fill:#ffffff"
     id="path52"
     d="M328.45,540.7l-.68,3.93a7.82,7.82,0,0,0-3.26-.76c-4.47,0-6.24,4.75-6.24,10.65v8.21H314V540.31h4.23v5.09c1.15-3.93,3.31-5.57,6.29-5.57A8.53,8.53,0,0,1,328.45,540.7Z" />
  <path
     style="fill:#ffffff"
     id="path54"
     d="M330.41,551.45c0-7.1,5.33-11.62,11.71-11.62s11.77,4.52,11.77,11.62a11.74,11.74,0,1,1-23.48,0Zm19.3,0a7.54,7.54,0,1,0-7.59,7.83A7.54,7.54,0,0,0,349.71,551.45Z" />
  <path
     style="fill:#ffffff"
     id="path56"
     d="M395,549.77v13H390.8V550c0-3.74-2.07-6.14-5.33-6.14-4,0-6.38,3.31-6,7.63l-.05-.19v11.42h-4.17V550c0-3.79-2.07-6.14-5.05-6.14-3.16,0-6.33,2-6.33,6.72v12.14h-4.18V540.31h4.18v3.41c1.15-2.4,4-3.89,7.2-3.89a7.79,7.79,0,0,1,7.39,4.66,8.33,8.33,0,0,1,7.83-4.66C391.9,539.83,395,543.48,395,549.77Z" />
  <path
     style="fill:#ffffff"
     id="path58"
     d="M433.9,540.31,420,573.63h-4.42l4.66-11.52-9-21.8h4.51l6.77,16.52,6.87-16.52Z" />
  <path
     style="fill:#ffffff"
     id="path60"
     d="M436.06,551.45c0-7.1,5.33-11.62,11.71-11.62s11.76,4.52,11.76,11.62a11.74,11.74,0,1,1-23.47,0Zm19.3,0a7.55,7.55,0,1,0-7.59,7.83A7.54,7.54,0,0,0,455.36,551.45Z" />
  <path
     style="fill:#ffffff"
     id="path62"
     d="M485.69,540.31v22.42h-4.17v-3.5c-1.35,2.78-4.95,4-7.45,4-5.61,0-9.07-3.65-9-9.94v-13h4.18V553c0,3.75,2.25,6.05,5.37,6.05s6.87-1.77,6.92-6.62V540.31Z" />
  <path
     style="fill:#ffffff"
     id="path64"
     d="M507.34,540.7l-.67,3.93a7.83,7.83,0,0,0-3.27-.76c-4.46,0-6.24,4.75-6.24,10.65v8.21h-4.22V540.31h4.22v5.09c1.15-3.93,3.31-5.57,6.29-5.57A8.5,8.5,0,0,1,507.34,540.7Z" />
  <path
     style="fill:#ffffff"
     id="path66"
     d="M173.65,568.73v-2.4h333v2.4Z" />
  <path
     style="fill:#ffffff"
     id="path68"
     d="M199.18,588.07v34.66H195v-3.55c-1.49,2.59-4.76,4-8,4-6.15,0-11.23-4.66-11.23-11.71s5-11.67,11.18-11.67c3.36,0,6.53,1.35,8,4V588.07ZM195,611.45a7.59,7.59,0,0,0-7.64-7.68,7.34,7.34,0,0,0-7.34,7.68c0,4.47,3.26,7.83,7.34,7.83A7.55,7.55,0,0,0,195,611.45Z" />
  <path
     style="fill:#ffffff"
     id="path70"
     d="M227.5,613.32H209.26c.63,4,3.51,6,7.35,6a7.22,7.22,0,0,0,6.52-3.41l3.65,1.44a11.22,11.22,0,0,1-10.32,5.9c-6.38,0-11.52-4.66-11.52-11.76a11.15,11.15,0,0,1,11.52-11.62c6.39,0,11.14,4.52,11.14,11.62C227.6,612.07,227.55,612.7,227.5,613.32Zm-4.08-3.6c-.52-3.84-3.26-6-7-6s-6.48,1.92-7.15,6Z" />
  <path
     style="fill:#ffffff"
     id="path72"
     d="M231.49,616.06h3.88c0,1.92,1.73,3.5,4.47,3.5s4.51-1.29,4.51-3.12-1.3-2.54-3.07-2.93l-3.07-.72c-3.75-1-5.91-2.83-5.91-6.43s3.17-6.53,7.68-6.53c3.79,0,7.73,2,7.73,6.53h-4c-.05-1.73-1.83-2.88-3.6-2.88-2.16,0-3.6,1.3-3.6,3,0,1.53,1.44,2.35,2.88,2.68l3.31.82c4.66,1.15,5.86,3.94,5.86,6.48,0,4.18-4,6.72-8.69,6.72C235.81,623.21,231.68,620.67,231.49,616.06Z" />
  <path
     style="fill:#ffffff"
     id="path74"
     d="M268.69,622.73l-10.32-10.94v10.94h-4.18V588.07h4.18v20.16l7.77-7.92H272l-9.6,9.7,11.95,12.72Z" />
  <path
     style="fill:#ffffff"
     id="path76"
     d="M287.21,611.45c0-7.1,5.33-11.62,11.72-11.62s11.76,4.52,11.76,11.62a11.74,11.74,0,1,1-23.48,0Zm19.3,0a7.54,7.54,0,1,0-7.58,7.83A7.54,7.54,0,0,0,306.51,611.45Z" />
  <path
     style="fill:#ffffff"
     id="path78"
     d="M330.89,600.7l-.67,3.93a7.82,7.82,0,0,0-3.26-.76c-4.47,0-6.24,4.75-6.24,10.65v8.21h-4.23V600.31h4.23v5.09c1.15-3.93,3.31-5.57,6.28-5.57A8.46,8.46,0,0,1,330.89,600.7Z" />
  <path
     style="fill:#ffffff"
     id="path80"
     d="M344.43,611.5c0-7.11,5.61-11.67,12.05-11.67a11.51,11.51,0,0,1,8.54,3.56l-2.64,2.73a7.91,7.91,0,0,0-5.76-2.35,7.73,7.73,0,1,0,0,15.46,7.91,7.91,0,0,0,5.76-2.35l2.64,2.73a11.32,11.32,0,0,1-8.54,3.55C350,623.16,344.43,618.6,344.43,611.5Z" />
  <path
     style="fill:#ffffff"
     id="path82"
     d="M368.19,611.45c0-7.1,5.33-11.62,11.71-11.62s11.76,4.52,11.76,11.62a11.74,11.74,0,1,1-23.47,0Zm19.3,0a7.55,7.55,0,1,0-7.59,7.83A7.54,7.54,0,0,0,387.49,611.45Z" />
  <path
     style="fill:#ffffff"
     id="path84"
     d="M417.82,600.31v22.42h-4.18v-3.5c-1.34,2.78-4.94,4-7.44,4-5.61,0-9.07-3.65-9-9.94v-13h4.18V613c0,3.75,2.25,6.05,5.37,6.05s6.87-1.77,6.91-6.62V600.31Z" />
  <path
     style="fill:#ffffff"
     id="path86"
     d="M423.53,611.5c0-7.11,5.62-11.67,12.05-11.67a11.5,11.5,0,0,1,8.54,3.56l-2.64,2.73a7.9,7.9,0,0,0-5.76-2.35,7.73,7.73,0,1,0,0,15.46,7.9,7.9,0,0,0,5.76-2.35l2.64,2.73a11.31,11.31,0,0,1-8.54,3.55C429.15,623.16,423.53,618.6,423.53,611.5Z" />
  <path
     style="fill:#ffffff"
     id="path88"
     d="M470,609.77v13h-4.17V610c0-3.74-2.31-6-5.43-6s-6.86,1.78-6.86,6.63v12.14H449.4V588.07h4.18v15.65c1.34-2.73,5-3.89,7.44-3.89C466.59,599.83,470.09,603.48,470,609.77Z" />
  <path
     style="fill:#ffffff"
     id="path90"
     d="M173.65,628.73v-2.4h299.7v2.4Z" />
  <path
     style="fill:#ffffff"
     id="path92"
     d="M773.79,493.27h4.32c.15,2.93,2.93,5.91,7.35,5.91s6.67-2.69,6.67-5.62c0-3.21-2.93-4.65-5.71-5.37l-4.27-1.06c-7-1.68-8.12-5.81-8.12-8.5,0-5.71,5.14-9.36,10.9-9.36s10.47,3.7,10.47,9.6h-4.33c0-3.31-2.73-5.57-6.28-5.57-3.32,0-6.39,2-6.39,5.28,0,1.16.39,3.56,4.8,4.61l4.32,1.06c5.62,1.39,9,4.46,9,9.17,0,5.13-4.18,9.79-11,9.79S773.84,498.41,773.79,493.27Z" />
  <path
     style="fill:#ffffff"
     id="path94"
     d="M812.77,483.91h-4.85v18.82h-4.17V483.91h-4v-3.6h4v-8.49h4.17v8.49h4.85Z" />
  <path
     style="fill:#ffffff"
     id="path96"
     d="M838.83,480.31v22.42h-4.17v-3.55c-1.49,2.59-4.75,4-8,4-6.14,0-11.23-4.66-11.23-11.71s5-11.67,11.18-11.67c3.36,0,6.53,1.35,8,4v-3.51Zm-4.17,11.14a7.59,7.59,0,0,0-7.63-7.68,7.34,7.34,0,0,0-7.35,7.68,7.5,7.5,0,1,0,15,0Z" />
  <path
     style="fill:#ffffff"
     id="path98"
     d="M866,480.31,852,513.63h-4.41l4.65-11.52-9-21.8h4.51l6.77,16.52,6.86-16.52Z" />
  <path
     style="fill:#ffffff"
     id="path100"
     d="M869.36,472.06a3,3,0,1,1,2.93,2.78A2.85,2.85,0,0,1,869.36,472.06Zm.86,8.25h4.18v22.42h-4.18Z" />
  <path
     style="fill:#ffffff"
     id="path102"
     d="M902.29,489.77v13h-4.18V490c0-3.74-2.3-6.05-5.42-6.05s-6.87,1.78-6.87,6.63v12.14h-4.17V480.31h4.17v3.41c1.35-2.74,5-3.89,7.45-3.89C898.83,479.83,902.34,483.48,902.29,489.77Z" />
  <path
     style="fill:#ffffff"
     id="path104"
     d="M931.14,480.31v19c0,10.61-4.8,14.6-12.2,14.6a11.39,11.39,0,0,1-10.08-6l3.56-1.88a7.54,7.54,0,0,0,6.52,3.94c4.95,0,8-2.78,8-10.37v-.43c-1.49,2.59-4.75,4-8,4-6.14,0-11.23-4.66-11.23-11.71s5-11.67,11.18-11.67c3.37,0,6.53,1.4,8,4v-3.51ZM927,491.45a7.59,7.59,0,0,0-7.63-7.68,7.34,7.34,0,0,0-7.35,7.68,7.5,7.5,0,1,0,15,0Z" />
  <path
     style="fill:#ffffff"
     id="path106"
     d="M971.22,489.77v13H967V490c0-3.74-2.3-6.05-5.42-6.05s-6.87,1.78-6.87,6.63v12.14h-4.17V468.07h4.17v15.65c1.35-2.74,5-3.89,7.44-3.89C967.76,479.83,971.26,483.48,971.22,489.77Z" />
  <path
     style="fill:#ffffff"
     id="path108"
     d="M999.2,493.32H981c.62,4,3.5,5.95,7.34,5.95a7.23,7.23,0,0,0,6.53-3.4l3.65,1.44a11.24,11.24,0,0,1-10.32,5.9c-6.38,0-11.52-4.66-11.52-11.76a11.15,11.15,0,0,1,11.52-11.62c6.38,0,11.14,4.52,11.14,11.62C999.3,492.07,999.25,492.7,999.2,493.32Zm-4.08-3.6c-.53-3.84-3.26-6-7-6s-6.48,1.92-7.15,6Z" />
  <path
     style="fill:#ffffff"
     id="path110"
     d="M1026.85,480.31v22.42h-4.18v-3.55c-1.49,2.59-4.75,4-8,4-6.14,0-11.23-4.66-11.23-11.71s5-11.67,11.19-11.67c3.36,0,6.52,1.35,8,4v-3.51Zm-4.18,11.14a7.58,7.58,0,0,0-7.63-7.68,7.34,7.34,0,0,0-7.34,7.68,7.49,7.49,0,1,0,15,0Z" />
  <path
     style="fill:#ffffff"
     id="path112"
     d="M1034.14,468.07h4.18v34.66h-4.18Z" />
  <path
     style="fill:#ffffff"
     id="path114"
     d="M1056.32,483.91h-4.85v18.82h-4.18V483.91h-4v-3.6h4v-8.49h4.18v8.49h4.85Z" />
  <path
     style="fill:#ffffff"
     id="path116"
     d="M1081.62,489.77v13h-4.18V490c0-3.74-2.3-6.05-5.42-6.05s-6.87,1.78-6.87,6.63v12.14H1061V468.07h4.18v15.65c1.35-2.74,5-3.89,7.44-3.89C1078.16,479.83,1081.66,483.48,1081.62,489.77Z" />
  <path
     style="fill:#ffffff"
     id="path118"
     d="M1107.87,480.31,1094,513.63h-4.41l4.65-11.52-9-21.8h4.52l6.77,16.52,6.86-16.52Z" />
  <path
     style="fill:#ffffff"
     id="path120"
     d="M771.34,508.73v-2.4h337.15v2.4Z" />
  <path
     style="fill:#ffffff"
     id="path122"
     d="M773.22,556.06h3.89c0,1.92,1.72,3.5,4.46,3.5s4.51-1.29,4.51-3.12-1.29-2.54-3.07-2.93l-3.07-.72c-3.75-1-5.91-2.83-5.91-6.43s3.17-6.53,7.68-6.53c3.8,0,7.73,2,7.73,6.53h-4c0-1.73-1.82-2.88-3.6-2.88-2.16,0-3.6,1.3-3.6,3,0,1.54,1.44,2.36,2.88,2.69l3.31.82c4.66,1.15,5.86,3.94,5.86,6.48,0,4.18-4,6.72-8.69,6.72C777.54,563.21,773.41,560.67,773.22,556.06Z" />
  <path
     style="fill:#ffffff"
     id="path124"
     d="M806.67,543.91h-4.84v18.82h-4.18V543.91h-4v-3.6h4v-8.49h4.18v8.49h4.84Z" />
  <path
     style="fill:#ffffff"
     id="path126"
     d="M832.74,540.31v22.42h-4.18v-3.55c-1.49,2.59-4.75,4-8,4-6.14,0-11.23-4.66-11.23-11.71s5-11.67,11.19-11.67c3.36,0,6.52,1.35,8,4v-3.51Zm-4.18,11.14a7.58,7.58,0,0,0-7.63-7.68,7.34,7.34,0,0,0-7.34,7.68,7.49,7.49,0,1,0,15,0Z" />
  <path
     style="fill:#ffffff"
     id="path128"
     d="M854.43,540.7l-.67,3.93a7.82,7.82,0,0,0-3.26-.76c-4.47,0-6.24,4.75-6.24,10.65v8.21H840V540.31h4.23v5.09c1.15-3.94,3.31-5.57,6.29-5.57A8.32,8.32,0,0,1,854.43,540.7Z" />
  <path
     style="fill:#ffffff"
     id="path130"
     d="M869.36,543.91h-4.85v18.82h-4.17V543.91h-4v-3.6h4v-8.49h4.17v8.49h4.85Z" />
  <path
     style="fill:#ffffff"
     id="path132"
     d="M872.05,556.06h3.89c0,1.92,1.72,3.5,4.46,3.5s4.51-1.29,4.51-3.12-1.29-2.54-3.07-2.93l-3.07-.72c-3.75-1-5.91-2.83-5.91-6.43s3.17-6.53,7.68-6.53c3.8,0,7.73,2,7.73,6.53h-4c0-1.73-1.82-2.88-3.6-2.88-2.16,0-3.6,1.3-3.6,3,0,1.54,1.44,2.36,2.88,2.69l3.31.82c4.66,1.15,5.86,3.94,5.86,6.48,0,4.18-4,6.72-8.69,6.72C876.37,563.21,872.24,560.67,872.05,556.06Z" />
  <path
     style="fill:#ffffff"
     id="path134"
     d="M939.92,540.31l-8.35,22.42h-3.5l-6.2-16.66-6,16.66h-3.46l-8.54-22.42h4.51l5.71,15.94,5.72-15.94h4.08l5.76,15.94,5.71-15.94Z" />
  <path
     style="fill:#ffffff"
     id="path136"
     d="M943.42,532.06a3,3,0,1,1,2.93,2.78A2.85,2.85,0,0,1,943.42,532.06Zm.87,8.25h4.17v22.42h-4.17Z" />
  <path
     style="fill:#ffffff"
     id="path138"
     d="M966.46,543.91h-4.84v18.82h-4.18V543.91h-4v-3.6h4v-8.49h4.18v8.49h4.84Z" />
  <path
     style="fill:#ffffff"
     id="path140"
     d="M991.76,549.77v13h-4.18V550c0-3.75-2.3-6-5.42-6s-6.86,1.78-6.86,6.62v12.15h-4.18V528.07h4.18v15.65c1.34-2.74,5-3.89,7.44-3.89C988.3,539.83,991.81,543.48,991.76,549.77Z" />
  <path
     style="fill:#ffffff"
     id="path142"
     d="M1009.09,556.06H1013c0,1.92,1.73,3.5,4.47,3.5s4.51-1.29,4.51-3.12-1.29-2.54-3.07-2.93l-3.07-.72c-3.75-1-5.91-2.83-5.91-6.43s3.17-6.53,7.68-6.53c3.8,0,7.73,2,7.73,6.53h-4c0-1.73-1.82-2.88-3.6-2.88-2.16,0-3.6,1.3-3.6,3,0,1.54,1.44,2.36,2.88,2.69l3.31.82c4.66,1.15,5.86,3.94,5.86,6.48,0,4.18-4,6.72-8.69,6.72C1013.41,563.21,1009.28,560.67,1009.09,556.06Z" />
  <path
     style="fill:#ffffff"
     id="path144"
     d="M1030.93,532.06a3,3,0,1,1,2.92,2.78A2.85,2.85,0,0,1,1030.93,532.06Zm.86,8.25H1036v22.42h-4.18Z" />
  <path
     style="fill:#ffffff"
     id="path146"
     d="M1078.5,549.77v13h-4.18V550c0-3.75-2.06-6.14-5.33-6.14-4,0-6.38,3.31-6,7.63l0-.19v11.42h-4.17V550c0-3.79-2.07-6.14-5-6.14-3.17,0-6.34,2-6.34,6.71v12.15h-4.18V540.31h4.18v3.41c1.15-2.4,4-3.89,7.2-3.89a7.78,7.78,0,0,1,7.39,4.66,8.31,8.31,0,0,1,7.83-4.66C1075.42,539.83,1078.5,543.48,1078.5,549.77Z" />
  <path
     style="fill:#ffffff"
     id="path148"
     d="M1108.83,551.55c0,7.1-5,11.66-11.18,11.66-3.36,0-6.53-1.34-8-4v14.4h-4.18V540.31h4.18v3.56c1.49-2.6,4.75-4,8-4C1103.74,539.83,1108.83,544.49,1108.83,551.55Zm-4.22,0a7.49,7.49,0,1,0-7.4,7.68A7.35,7.35,0,0,0,1104.61,551.59Z" />
  <path
     style="fill:#ffffff"
     id="path150"
     d="M1114.64,528.07h4.17v34.66h-4.17Z" />
  <path
     style="fill:#ffffff"
     id="path152"
     d="M1147.09,553.32h-18.25c.63,4,3.51,5.95,7.35,5.95a7.23,7.23,0,0,0,6.53-3.4l3.65,1.44a11.24,11.24,0,0,1-10.32,5.9c-6.39,0-11.53-4.66-11.53-11.76a11.14,11.14,0,0,1,11.53-11.62c6.38,0,11.13,4.51,11.13,11.62C1147.18,552.07,1147.13,552.7,1147.09,553.32Zm-4.08-3.6c-.53-3.84-3.27-6-7-6s-6.48,1.92-7.16,6Z" />
  <path
     style="fill:#ffffff"
     id="path154"
     d="M771.34,568.73v-2.4H1149.2v2.4Z" />
  <path
     style="fill:#ffffff"
     id="path156"
     d="M796.88,588.07v34.66h-4.17v-3.55c-1.49,2.59-4.76,4-8,4-6.15,0-11.24-4.66-11.24-11.71s5-11.67,11.19-11.67c3.36,0,6.53,1.35,8,4V588.07Zm-4.17,23.38a7.59,7.59,0,0,0-7.64-7.68,7.34,7.34,0,0,0-7.34,7.68,7.5,7.5,0,1,0,15,0Z" />
  <path
     style="fill:#ffffff"
     id="path158"
     d="M826.07,600.31v22.42h-4.18v-3.55c-1.49,2.59-4.75,4-8,4-6.14,0-11.23-4.66-11.23-11.71s5-11.67,11.18-11.67c3.36,0,6.53,1.35,8,4v-3.51Zm-4.18,11.14a7.59,7.59,0,0,0-7.63-7.68,7.34,7.34,0,0,0-7.35,7.68,7.5,7.5,0,1,0,15,0Z" />
  <path
     style="fill:#ffffff"
     id="path160"
     d="M832.5,592.06a3,3,0,1,1,2.92,2.78A2.85,2.85,0,0,1,832.5,592.06Zm.86,8.25h4.18v22.42h-4.18Z" />
  <path
     style="fill:#ffffff"
     id="path162"
     d="M844.78,588.07H849v34.66h-4.18Z" />
  <path
     style="fill:#ffffff"
     id="path164"
     d="M876,600.31l-13.92,33.32H857.7l4.65-11.52-9-21.8h4.51l6.77,16.52,6.86-16.52Z" />
  <path
     style="fill:#ffffff"
     id="path166"
     d="M903.2,603.91h-4.85v18.82h-4.17V603.91h-4v-3.6h4v-8.49h4.17v8.49h4.85Z" />
  <path
     style="fill:#ffffff"
     id="path168"
     d="M929.27,600.31v22.42h-4.18v-3.55c-1.49,2.59-4.75,4-8,4-6.14,0-11.23-4.66-11.23-11.71s5-11.67,11.18-11.67c3.36,0,6.53,1.35,8,4v-3.51Zm-4.18,11.14a7.59,7.59,0,0,0-7.63-7.68,7.34,7.34,0,0,0-7.35,7.68,7.5,7.5,0,1,0,15,0Z" />
  <path
     style="fill:#ffffff"
     id="path170"
     d="M934.78,616.06h3.89c.05,1.92,1.73,3.5,4.47,3.5s4.51-1.29,4.51-3.12-1.3-2.54-3.07-2.93l-3.08-.72c-3.74-1-5.9-2.83-5.9-6.43s3.17-6.53,7.68-6.53c3.79,0,7.73,2,7.73,6.53h-4c-.05-1.73-1.83-2.88-3.6-2.88-2.16,0-3.6,1.3-3.6,3,0,1.54,1.44,2.36,2.88,2.69L946,610c4.65,1.15,5.85,3.94,5.85,6.48,0,4.18-4,6.72-8.68,6.72C939.1,623.21,935,620.67,934.78,616.06Z" />
  <path
     style="fill:#ffffff"
     id="path172"
     d="M972,622.73l-10.32-10.94v10.94h-4.17V588.07h4.17v20.16l7.78-7.92h5.81l-9.6,9.7,12,12.72Z" />
  <path
     style="fill:#ffffff"
     id="path174"
     d="M978.56,616.06h3.89c0,1.92,1.73,3.5,4.46,3.5s4.51-1.29,4.51-3.12-1.29-2.54-3.07-2.93l-3.07-.72c-3.74-1-5.9-2.83-5.9-6.43s3.16-6.53,7.68-6.53c3.79,0,7.72,2,7.72,6.53h-4c0-1.73-1.82-2.88-3.6-2.88-2.16,0-3.6,1.3-3.6,3,0,1.54,1.44,2.36,2.88,2.69l3.31.82c4.66,1.15,5.86,3.94,5.86,6.48,0,4.18-4,6.72-8.69,6.72C982.88,623.21,978.75,620.67,978.56,616.06Z" />
  <path
     style="fill:#ffffff"
     id="path176"
     d="M771.34,628.73v-2.4H997.61v2.4Z" />
  <path
     style="fill:#ffffff"
     id="path178"
     d="M1398.9,469.66l-12.72,17.81v15.26h-4.37V487.47l-12.57-17.81h5.18l9.6,13.53,9.65-13.53Z" />
  <path
     style="fill:#ffffff"
     id="path180"
     d="M1395.78,491.45c0-7.1,5.33-11.62,11.71-11.62s11.76,4.52,11.76,11.62a11.74,11.74,0,1,1-23.47,0Zm19.3,0a7.55,7.55,0,1,0-7.59,7.82A7.54,7.54,0,0,0,1415.08,491.45Z" />
  <path
     style="fill:#ffffff"
     id="path182"
     d="M1445.41,480.31v22.42h-4.17v-3.5c-1.35,2.78-5,4-7.44,4-5.62,0-9.08-3.65-9-9.94v-13H1429V493c0,3.75,2.26,6.05,5.38,6.05s6.86-1.77,6.91-6.62V480.31Z" />
  <path
     style="fill:#ffffff"
     id="path184"
     d="M1497.83,480.31l-8.35,22.42H1486l-6.19-16.66-6,16.66h-3.46l-8.54-22.42h4.51l5.71,15.94,5.71-15.94h4.08l5.77,15.94,5.71-15.94Z" />
  <path
     style="fill:#ffffff"
     id="path186"
     d="M1500.28,491.45c0-7.1,5.32-11.62,11.71-11.62s11.76,4.52,11.76,11.62a11.74,11.74,0,1,1-23.47,0Zm19.29,0a7.54,7.54,0,1,0-7.58,7.82A7.53,7.53,0,0,0,1519.57,491.45Z" />
  <path
     style="fill:#ffffff"
     id="path188"
     d="M1550.2,489.77v13H1546V490c0-3.74-2.3-6.05-5.42-6.05s-6.87,1.78-6.87,6.63v12.14h-4.18V480.31h4.18v3.41c1.35-2.74,5-3.89,7.44-3.89C1546.74,479.83,1550.24,483.48,1550.2,489.77Z" />
  <path
     style="fill:#ffffff"
     id="path190"
     d="M1554.32,480.94c2.69-3.8,4.27-7,3.65-12.87h3.84c.58,5.52-1.3,10.66-5,13.78Z" />
  <path
     style="fill:#ffffff"
     id="path192"
     d="M1578.47,483.91h-4.85v18.82h-4.18V483.91h-4v-3.6h4v-8.49h4.18v8.49h4.85Z" />
  <path
     style="fill:#ffffff"
     id="path194"
     d="M1616.29,493.32h-18.24c.62,4,3.5,5.95,7.34,5.95a7.23,7.23,0,0,0,6.53-3.4l3.65,1.44a11.24,11.24,0,0,1-10.32,5.9c-6.38,0-11.52-4.66-11.52-11.76a11.15,11.15,0,0,1,11.52-11.62c6.38,0,11.14,4.52,11.14,11.62C1616.39,492.07,1616.34,492.7,1616.29,493.32Zm-4.08-3.6c-.53-3.84-3.26-6-7-6s-6.48,1.92-7.15,6Z" />
  <path
     style="fill:#ffffff"
     id="path196"
     d="M1641.25,480.31l-9.36,22.42h-4.08l-9.31-22.42H1623l6.92,17.09,6.86-17.09Z" />
  <path
     style="fill:#ffffff"
     id="path198"
     d="M1666.07,493.32h-18.24c.62,4,3.5,5.95,7.34,5.95a7.23,7.23,0,0,0,6.53-3.4l3.65,1.44a11.24,11.24,0,0,1-10.32,5.9c-6.39,0-11.52-4.66-11.52-11.76A11.14,11.14,0,0,1,1655,479.83c6.38,0,11.14,4.52,11.14,11.62C1666.17,492.07,1666.12,492.7,1666.07,493.32Zm-4.08-3.6c-.53-3.84-3.27-6-7-6s-6.48,1.92-7.15,6Z" />
  <path
     style="fill:#ffffff"
     id="path200"
     d="M1692.47,489.77v13h-4.18V490c0-3.74-2.3-6.05-5.42-6.05s-6.87,1.78-6.87,6.63v12.14h-4.17V480.31H1676v3.41c1.35-2.74,5-3.89,7.44-3.89C1689,479.83,1692.52,483.48,1692.47,489.77Z" />
  <path
     style="fill:#ffffff"
     id="path202"
     d="M1369,508.73v-2.4h326.74v2.4Z" />
  <path
     style="fill:#ffffff"
     id="path204"
     d="M1387.19,562.73l-10.32-10.94v10.94h-4.18V528.07h4.18v20.16l7.78-7.92h5.8l-9.6,9.7,12,12.72Z" />
  <path
     style="fill:#ffffff"
     id="path206"
     d="M1416.66,549.77v13h-4.17V550c0-3.75-2.31-6-5.43-6s-6.86,1.78-6.86,6.62v12.15H1396V540.31h4.18v3.41c1.34-2.74,5-3.89,7.44-3.89C1413.21,539.83,1416.71,543.48,1416.66,549.77Z" />
  <path
     style="fill:#ffffff"
     id="path208"
     d="M1422.08,551.45c0-7.11,5.33-11.62,11.72-11.62s11.76,4.51,11.76,11.62a11.74,11.74,0,1,1-23.48,0Zm19.3,0a7.54,7.54,0,1,0-7.58,7.82A7.53,7.53,0,0,0,1441.38,551.45Z" />
  <path
     style="fill:#ffffff"
     id="path210"
     d="M1484,540.31l-8.36,22.42h-3.5L1466,546.07l-6,16.66h-3.45L1448,540.31h4.52l5.71,15.94,5.71-15.94H1468l5.76,15.94,5.71-15.94Z" />
  <path
     style="fill:#ffffff"
     id="path212"
     d="M1511.27,543.91h-4.85v18.82h-4.18V543.91h-4v-3.6h4v-8.49h4.18v8.49h4.85Z" />
  <path
     style="fill:#ffffff"
     id="path214"
     d="M1536.56,549.77v13h-4.17V550c0-3.75-2.31-6-5.43-6s-6.86,1.78-6.86,6.62v12.15h-4.18V528.07h4.18v15.65c1.34-2.74,5-3.89,7.44-3.89C1533.11,539.83,1536.61,543.48,1536.56,549.77Z" />
  <path
     style="fill:#ffffff"
     id="path216"
     d="M1565.41,540.31v22.42h-4.17v-3.55c-1.49,2.59-4.76,4-8,4-6.15,0-11.24-4.66-11.24-11.71s5-11.67,11.19-11.67c3.36,0,6.53,1.35,8,4v-3.51Zm-4.17,11.14a7.59,7.59,0,0,0-7.64-7.68,7.34,7.34,0,0,0-7.34,7.68,7.5,7.5,0,1,0,15,0Z" />
  <path
     style="fill:#ffffff"
     id="path218"
     d="M1583.46,543.91h-4.85v18.82h-4.18V543.91h-4v-3.6h4v-8.49h4.18v8.49h4.85Z" />
  <path
     style="fill:#ffffff"
     id="path220"
     d="M1620.08,540.31l-13.92,33.32h-4.41l4.65-11.52-9-21.8h4.51l6.77,16.52,6.86-16.52Z" />
  <path
     style="fill:#ffffff"
     id="path222"
     d="M1622.24,551.45c0-7.11,5.33-11.62,11.72-11.62s11.76,4.51,11.76,11.62a11.74,11.74,0,1,1-23.48,0Zm19.3,0a7.54,7.54,0,1,0-7.58,7.82A7.53,7.53,0,0,0,1641.54,551.45Z" />
  <path
     style="fill:#ffffff"
     id="path224"
     d="M1671.88,540.31v22.42h-4.18v-3.5c-1.35,2.78-5,4-7.44,4-5.62,0-9.07-3.65-9-9.94v-13h4.18V553c0,3.75,2.26,6.05,5.38,6.05s6.86-1.77,6.91-6.62V540.31Z" />
  <path
     style="fill:#ffffff"
     id="path226"
     d="M1677.25,540.94c2.69-3.8,4.27-7,3.65-12.87h3.84c.57,5.52-1.3,10.66-5,13.78Z" />
  <path
     style="fill:#ffffff"
     id="path228"
     d="M1704.13,540.7l-.67,3.93a7.83,7.83,0,0,0-3.27-.76c-4.46,0-6.24,4.75-6.24,10.65v8.21h-4.22V540.31H1694v5.09c1.16-3.94,3.32-5.57,6.29-5.57A8.34,8.34,0,0,1,1704.13,540.7Z" />
  <path
     style="fill:#ffffff"
     id="path230"
     d="M1728.66,553.32h-18.24c.62,4,3.5,5.95,7.34,5.95a7.23,7.23,0,0,0,6.53-3.4l3.65,1.44a11.24,11.24,0,0,1-10.32,5.9c-6.39,0-11.52-4.66-11.52-11.76s5.13-11.62,11.52-11.62,11.13,4.51,11.13,11.62C1728.75,552.07,1728.71,552.7,1728.66,553.32Zm-4.08-3.6c-.53-3.84-3.27-6-7-6s-6.48,1.92-7.16,6Z" />
  <path
     style="fill:#ffffff"
     id="path232"
     d="M1369,568.73v-2.4h361.73v2.4Z" />
  <path
     style="fill:#ffffff"
     id="path234"
     d="M1393.72,613.32h-18.24c.62,4,3.5,5.95,7.34,5.95a7.23,7.23,0,0,0,6.53-3.4l3.65,1.44a11.24,11.24,0,0,1-10.32,5.9c-6.39,0-11.52-4.66-11.52-11.76s5.13-11.62,11.52-11.62,11.13,4.51,11.13,11.62C1393.81,612.07,1393.77,612.7,1393.72,613.32Zm-4.08-3.6c-.53-3.84-3.27-6-7-6s-6.48,1.92-7.16,6Z" />
  <path
     style="fill:#ffffff"
     id="path236"
     d="M1413.16,622.73l-6.34-8.78-6.38,8.78h-5l8.89-12.34-7.25-10.08h5l4.7,6.68,4.71-6.68h5.08l-7.29,10.13,8.83,12.29Z" />
  <path
     style="fill:#ffffff"
     id="path238"
     d="M1442.29,613.32h-18.24c.63,4,3.51,5.95,7.35,5.95a7.24,7.24,0,0,0,6.53-3.4l3.65,1.44a11.25,11.25,0,0,1-10.33,5.9c-6.38,0-11.52-4.66-11.52-11.76a11.14,11.14,0,0,1,11.52-11.62c6.39,0,11.14,4.51,11.14,11.62C1442.39,612.07,1442.34,612.7,1442.29,613.32Zm-4.08-3.6c-.52-3.84-3.26-6-7-6s-6.48,1.92-7.15,6Z" />
  <path
     style="fill:#ffffff"
     id="path240"
     d="M1462.45,600.7l-.67,3.93a7.82,7.82,0,0,0-3.26-.76c-4.47,0-6.24,4.75-6.24,10.65v8.21h-4.23V600.31h4.23v5.09c1.15-3.94,3.31-5.57,6.29-5.57A8.32,8.32,0,0,1,1462.45,600.7Z" />
  <path
     style="fill:#ffffff"
     id="path242"
     d="M1464.42,611.5c0-7.11,5.62-11.67,12-11.67a11.49,11.49,0,0,1,8.54,3.55l-2.63,2.74a7.94,7.94,0,0,0-5.77-2.35,7.73,7.73,0,1,0,0,15.46,7.94,7.94,0,0,0,5.77-2.36l2.63,2.74a11.31,11.31,0,0,1-8.54,3.55C1470,623.16,1464.42,618.6,1464.42,611.5Z" />
  <path
     style="fill:#ffffff"
     id="path244"
     d="M1489.43,592.06a3,3,0,1,1,2.93,2.78A2.85,2.85,0,0,1,1489.43,592.06Zm.86,8.25h4.18v22.42h-4.18Z" />
  <path
     style="fill:#ffffff"
     id="path246"
     d="M1499.94,616.06h3.89c.05,1.92,1.73,3.5,4.46,3.5s4.52-1.29,4.52-3.12-1.3-2.54-3.08-2.93l-3.07-.72c-3.74-1-5.9-2.83-5.9-6.43s3.16-6.53,7.68-6.53c3.79,0,7.73,2,7.73,6.53h-4c0-1.73-1.82-2.88-3.6-2.88-2.16,0-3.6,1.3-3.6,3,0,1.54,1.44,2.36,2.88,2.69l3.32.82c4.65,1.15,5.85,3.94,5.85,6.48,0,4.18-4,6.72-8.69,6.72C1504.26,623.21,1500.13,620.67,1499.94,616.06Z" />
  <path
     style="fill:#ffffff"
     id="path248"
     d="M1521.78,592.06a3,3,0,1,1,2.93,2.78A2.85,2.85,0,0,1,1521.78,592.06Zm.86,8.25h4.18v22.42h-4.18Z" />
  <path
     style="fill:#ffffff"
     id="path250"
     d="M1554.71,609.77v13h-4.18V610c0-3.75-2.3-6-5.42-6s-6.86,1.78-6.86,6.62v12.15h-4.18V600.31h4.18v3.41c1.34-2.74,5-3.89,7.44-3.89C1551.25,599.83,1554.76,603.48,1554.71,609.77Z" />
  <path
     style="fill:#ffffff"
     id="path252"
     d="M1583.56,600.31v19c0,10.61-4.8,14.6-12.19,14.6a11.4,11.4,0,0,1-10.09-6l3.56-1.88a7.54,7.54,0,0,0,6.53,3.94c4.94,0,8-2.78,8-10.37v-.43c-1.49,2.59-4.75,4-8,4-6.14,0-11.23-4.66-11.23-11.71s5-11.67,11.19-11.67c3.36,0,6.52,1.39,8,4v-3.51Zm-4.18,11.14a7.58,7.58,0,0,0-7.63-7.68,7.34,7.34,0,0,0-7.35,7.68,7.5,7.5,0,1,0,15,0Z" />
  <path
     style="fill:#ffffff"
     id="path254"
     d="M1369,628.73v-2.4H1587.2v2.4Z" />
  <path
     style="fill:#ffffff"
     id="path256"
     d="M1371.92,718.23h8c5.88,0,9.33,4.5,9.33,10.38s-3.45,10.29-9.33,10.29h-8Zm8,18.15c4.35,0,6.6-3.36,6.6-7.77s-2.25-7.86-6.6-7.86h-5.28v15.63Z" />
  <path
     style="fill:#ffffff"
     id="path258"
     d="M1406.24,733h-11.4a4.24,4.24,0,0,0,4.59,3.72,4.51,4.51,0,0,0,4.08-2.13l2.28.9a7.3,7.3,0,1,1-6.45-10.92c4,0,7,2.82,7,7.26C1406.3,732.24,1406.27,732.63,1406.24,733Zm-2.55-2.25a4.09,4.09,0,0,0-4.35-3.72,4.14,4.14,0,0,0-4.47,3.72Z" />
  <path
     style="fill:#ffffff"
     id="path260"
     d="M1423,733h-11.4a4.24,4.24,0,0,0,4.59,3.72,4.51,4.51,0,0,0,4.08-2.13l2.28.9a7.3,7.3,0,1,1-6.45-10.92c4,0,7,2.82,7,7.26C1423,732.24,1423,732.63,1423,733Zm-2.55-2.25a4.09,4.09,0,0,0-4.35-3.72,4.14,4.14,0,0,0-4.47,3.72Z" />
  <path
     style="fill:#ffffff"
     id="path262"
     d="M1441.19,731.91a6.91,6.91,0,0,1-7,7.29,5.59,5.59,0,0,1-5-2.49v9h-2.61V724.89h2.61v2.22a5.73,5.73,0,0,1,5-2.52A7,7,0,0,1,1441.19,731.91Zm-2.64,0a4.68,4.68,0,1,0-9.36,0,4.74,4.74,0,0,0,4.74,4.8A4.59,4.59,0,0,0,1438.55,731.94Z" />
  <path
     style="fill:#ffffff"
     id="path264"
     d="M1452.41,717.24H1455V738.9h-2.61Z" />
  <path
     style="fill:#ffffff"
     id="path266"
     d="M1472.69,733h-11.4a4.24,4.24,0,0,0,4.59,3.72,4.51,4.51,0,0,0,4.08-2.13l2.28.9a7.3,7.3,0,1,1-6.45-10.92c4,0,7,2.82,7,7.26C1472.75,732.24,1472.72,732.63,1472.69,733Zm-2.55-2.25a4.09,4.09,0,0,0-4.35-3.72,4.14,4.14,0,0,0-4.47,3.72Z" />
  <path
     style="fill:#ffffff"
     id="path268"
     d="M1490,724.89v14h-2.61v-2.22a5.73,5.73,0,0,1-5,2.52,7.31,7.31,0,0,1,0-14.61,5.59,5.59,0,0,1,5,2.49v-2.19Zm-2.61,7a4.74,4.74,0,0,0-4.77-4.8,4.59,4.59,0,0,0-4.59,4.8,4.68,4.68,0,1,0,9.36,0Z" />
  <path
     style="fill:#ffffff"
     id="path270"
     d="M1503.53,725.13l-.42,2.46a4.85,4.85,0,0,0-2-.48c-2.79,0-3.9,3-3.9,6.66v5.13h-2.64v-14h2.64v3.18c.72-2.46,2.07-3.48,3.93-3.48A5.29,5.29,0,0,1,1503.53,725.13Z" />
  <path
     style="fill:#ffffff"
     id="path272"
     d="M1519,730.8v8.1h-2.61V731c0-2.34-1.44-3.78-3.39-3.78a4,4,0,0,0-4.29,4.14v7.59h-2.61v-14h2.61V727c.84-1.71,3.12-2.43,4.65-2.43C1516.88,724.59,1519.07,726.87,1519,730.8Z" />
  <path
     style="fill:#ffffff"
     id="path274"
     d="M1522.85,719.73a1.85,1.85,0,1,1,1.83,1.74A1.78,1.78,0,0,1,1522.85,719.73Zm.54,5.16H1526v14h-2.61Z" />
  <path
     style="fill:#ffffff"
     id="path276"
     d="M1543.43,730.8v8.1h-2.61V731c0-2.34-1.44-3.78-3.39-3.78a4,4,0,0,0-4.29,4.14v7.59h-2.61v-14h2.61V727c.84-1.71,3.12-2.43,4.65-2.43C1541.27,724.59,1543.46,726.87,1543.43,730.8Z" />
  <path
     style="fill:#ffffff"
     id="path278"
     d="M1561.46,724.89v11.88c0,6.63-3,9.11-7.62,9.11a7.1,7.1,0,0,1-6.3-3.74l2.22-1.17a4.72,4.72,0,0,0,4.08,2.46c3.09,0,5-1.74,5-6.48v-.27a5.73,5.73,0,0,1-5,2.52,7.31,7.31,0,0,1,0-14.61,5.65,5.65,0,0,1,5,2.49v-2.19Zm-2.61,7a4.74,4.74,0,0,0-4.77-4.8,4.59,4.59,0,0,0-4.59,4.8,4.68,4.68,0,1,0,9.36,0Z" />
  <path
     style="fill:#ffffff"
     id="path280"
     d="M1580.33,727.14h-3V738.9h-2.61V727.14h-2.52v-2.25h2.52v-5.31h2.61v5.31h3Z" />
  <path
     style="fill:#ffffff"
     id="path282"
     d="M1596.08,733h-11.4a4.24,4.24,0,0,0,4.59,3.72,4.51,4.51,0,0,0,4.08-2.13l2.28.9a7.3,7.3,0,1,1-6.45-10.92c4,0,7,2.82,7,7.26C1596.14,732.24,1596.11,732.63,1596.08,733Zm-2.55-2.25a4.09,4.09,0,0,0-4.35-3.72,4.14,4.14,0,0,0-4.47,3.72Z" />
  <path
     style="fill:#ffffff"
     id="path284"
     d="M1598.72,731.88a7.53,7.53,0,0,1,12.87-5.07l-1.65,1.71a5,5,0,0,0-3.6-1.47,4.83,4.83,0,1,0,0,9.66,5,5,0,0,0,3.6-1.47l1.65,1.71a7.08,7.08,0,0,1-5.34,2.22A7.24,7.24,0,0,1,1598.72,731.88Z" />
  <path
     style="fill:#ffffff"
     id="path286"
     d="M1627.79,730.8v8.1h-2.61V731c0-2.34-1.44-3.78-3.39-3.78a4,4,0,0,0-4.29,4.14v7.59h-2.61V717.24h2.61V727c.84-1.71,3.12-2.43,4.65-2.43C1625.63,724.59,1627.82,726.87,1627.79,730.8Z" />
  <path
     style="fill:#ffffff"
     id="path288"
     d="M1645,730.8v8.1h-2.61V731c0-2.34-1.44-3.78-3.39-3.78a4,4,0,0,0-4.29,4.14v7.59h-2.61v-14h2.61V727c.84-1.71,3.12-2.43,4.65-2.43C1642.88,724.59,1645.07,726.87,1645,730.8Z" />
  <path
     style="fill:#ffffff"
     id="path290"
     d="M1648.43,731.85a7.34,7.34,0,0,1,14.67,0,7.34,7.34,0,1,1-14.67,0Zm12.06,0a4.71,4.71,0,1,0-4.74,4.89A4.71,4.71,0,0,0,1660.49,731.85Z" />
  <path
     style="fill:#ffffff"
     id="path292"
     d="M1666.73,717.24h2.61V738.9h-2.61Z" />
  <path
     style="fill:#ffffff"
     id="path294"
     d="M1672.91,731.85a7.34,7.34,0,0,1,14.67,0,7.34,7.34,0,1,1-14.67,0Zm12.06,0a4.71,4.71,0,1,0-4.74,4.89A4.71,4.71,0,0,0,1685,731.85Z" />
  <path
     style="fill:#ffffff"
     id="path296"
     d="M1704.89,724.89v11.88c0,6.63-3,9.11-7.62,9.11a7.1,7.1,0,0,1-6.3-3.74l2.22-1.17a4.72,4.72,0,0,0,4.08,2.46c3.09,0,5-1.74,5-6.48v-.27a5.73,5.73,0,0,1-5,2.52,7.31,7.31,0,0,1,0-14.61,5.65,5.65,0,0,1,5,2.49v-2.19Zm-2.61,7a4.74,4.74,0,0,0-4.77-4.8,4.59,4.59,0,0,0-4.59,4.8,4.68,4.68,0,1,0,9.36,0Z" />
  <path
     style="fill:#ffffff"
     id="path298"
     d="M1721.84,724.89l-8.7,20.82h-2.76l2.91-7.2-5.61-13.62h2.82l4.23,10.32,4.29-10.32Z" />
  <path
     style="fill:#ffffff"
     id="path300"
     d="M1385,760.89v11.88c0,6.63-3,9.11-7.62,9.11a7.1,7.1,0,0,1-6.3-3.74l2.22-1.17a4.72,4.72,0,0,0,4.08,2.46c3.09,0,5-1.74,5-6.48v-.27a5.73,5.73,0,0,1-5,2.52,7.31,7.31,0,0,1,0-14.61,5.65,5.65,0,0,1,5,2.49v-2.19Zm-2.61,7a4.74,4.74,0,0,0-4.77-4.8,4.59,4.59,0,0,0-4.59,4.8,4.68,4.68,0,1,0,9.36,0Z" />
  <path
     style="fill:#ffffff"
     id="path302"
     d="M1402.28,760.89v14h-2.61v-2.19c-.84,1.74-3.09,2.49-4.65,2.49-3.51,0-5.67-2.28-5.64-6.21v-8.1H1392v8c0,2.34,1.41,3.78,3.36,3.78a4,4,0,0,0,4.32-4.14v-7.59Z" />
  <path
     style="fill:#ffffff"
     id="path304"
     d="M1406.27,755.73a1.85,1.85,0,1,1,1.83,1.74A1.78,1.78,0,0,1,1406.27,755.73Zm.54,5.16h2.61v14h-2.61Z" />
  <path
     style="fill:#ffffff"
     id="path306"
     d="M1427.63,753.24V774.9H1425v-2.22a5.73,5.73,0,0,1-5,2.52,7.31,7.31,0,0,1,0-14.61,5.59,5.59,0,0,1,5,2.49v-9.84ZM1425,767.85a4.74,4.74,0,0,0-4.77-4.8,4.59,4.59,0,0,0-4.59,4.8,4.68,4.68,0,1,0,9.36,0Z" />
  <path
     style="fill:#ffffff"
     id="path308"
     d="M1445.33,769h-11.4a4.24,4.24,0,0,0,4.59,3.72,4.51,4.51,0,0,0,4.08-2.13l2.28.9a7.3,7.3,0,1,1-6.45-10.92c4,0,7,2.82,7,7.26C1445.39,768.24,1445.36,768.63,1445.33,769Zm-2.55-2.25a4.09,4.09,0,0,0-4.35-3.72,4.14,4.14,0,0,0-4.47,3.72Z" />
  <path
     style="fill:#ffffff"
     id="path310"
     d="M1447.82,770.73h2.43c0,1.2,1.08,2.19,2.79,2.19s2.82-.81,2.82-1.95-.81-1.59-1.92-1.83l-1.92-.45c-2.34-.63-3.69-1.77-3.69-4s2-4.08,4.8-4.08c2.37,0,4.83,1.26,4.83,4.08h-2.52a2.11,2.11,0,0,0-2.25-1.8,2,2,0,0,0-2.25,1.89c0,1,.9,1.47,1.8,1.68l2.07.51c2.91.72,3.66,2.46,3.66,4,0,2.61-2.52,4.2-5.43,4.2C1450.52,775.2,1447.94,773.61,1447.82,770.73Z" />
  <path
     style="fill:#ffffff"
     id="path312"
     d="M1482,760.89l-8.7,20.82h-2.76l2.91-7.2-5.61-13.62h2.82l4.23,10.32,4.29-10.32Z" />
  <path
     style="fill:#ffffff"
     id="path314"
     d="M1483.34,767.85a7.34,7.34,0,0,1,14.67,0,7.34,7.34,0,1,1-14.67,0Zm12.06,0a4.71,4.71,0,1,0-4.74,4.89A4.71,4.71,0,0,0,1495.4,767.85Z" />
  <path
     style="fill:#ffffff"
     id="path316"
     d="M1514.36,760.89v14h-2.61v-2.19c-.84,1.74-3.09,2.49-4.65,2.49-3.51,0-5.67-2.28-5.64-6.21v-8.1h2.61v8c0,2.34,1.41,3.78,3.36,3.78a4,4,0,0,0,4.32-4.14v-7.59Z" />
  <path
     style="fill:#ffffff"
     id="path318"
     d="M1533.2,763.14h-3V774.9h-2.61V763.14H1525v-2.25h2.52v-5.31h2.61v5.31h3Z" />
  <path
     style="fill:#ffffff"
     id="path320"
     d="M1549,766.8v8.1h-2.61V767c0-2.34-1.44-3.78-3.39-3.78a4,4,0,0,0-4.29,4.14v7.59h-2.61V753.24h2.61V763c.84-1.71,3.12-2.43,4.65-2.43C1546.85,760.59,1549,762.87,1549,766.8Z" />
  <path
     style="fill:#ffffff"
     id="path322"
     d="M1562.36,761.13l-.42,2.46a4.85,4.85,0,0,0-2-.48c-2.79,0-3.9,3-3.9,6.66v5.13h-2.64v-14H1556v3.18c.72-2.46,2.07-3.48,3.93-3.48A5.29,5.29,0,0,1,1562.36,761.13Z" />
  <path
     style="fill:#ffffff"
     id="path324"
     d="M1563.59,767.85a7.34,7.34,0,0,1,14.67,0,7.34,7.34,0,1,1-14.67,0Zm12.06,0a4.71,4.71,0,1,0-4.74,4.89A4.71,4.71,0,0,0,1575.65,767.85Z" />
  <path
     style="fill:#ffffff"
     id="path326"
     d="M1594.61,760.89v14H1592v-2.19c-.84,1.74-3.09,2.49-4.65,2.49-3.51,0-5.67-2.28-5.64-6.21v-8.1h2.61v8c0,2.34,1.41,3.78,3.36,3.78a4,4,0,0,0,4.32-4.14v-7.59Z" />
  <path
     style="fill:#ffffff"
     id="path328"
     d="M1612.82,760.89v11.88c0,6.63-3,9.11-7.62,9.11a7.1,7.1,0,0,1-6.3-3.74l2.22-1.17a4.72,4.72,0,0,0,4.08,2.46c3.09,0,5-1.74,5-6.48v-.27a5.73,5.73,0,0,1-5,2.52,7.31,7.31,0,0,1,0-14.61,5.65,5.65,0,0,1,5,2.49v-2.19Zm-2.61,7a4.74,4.74,0,0,0-4.77-4.8,4.59,4.59,0,0,0-4.59,4.8,4.68,4.68,0,1,0,9.36,0Z" />
  <path
     style="fill:#ffffff"
     id="path330"
     d="M1630.28,766.8v8.1h-2.61V767c0-2.34-1.44-3.78-3.39-3.78a4,4,0,0,0-4.29,4.14v7.59h-2.61V753.24H1620V763c.84-1.71,3.12-2.43,4.65-2.43C1628.12,760.59,1630.31,762.87,1630.28,766.8Z" />
  <path
     style="fill:#ffffff"
     id="path332"
     d="M1654.61,760.89l-8.7,20.82h-2.76l2.91-7.2-5.61-13.62h2.82l4.23,10.32,4.29-10.32Z" />
  <path
     style="fill:#ffffff"
     id="path334"
     d="M1656,767.85a7.34,7.34,0,0,1,14.67,0,7.34,7.34,0,1,1-14.67,0Zm12.06,0a4.71,4.71,0,1,0-4.74,4.89A4.71,4.71,0,0,0,1668,767.85Z" />
  <path
     style="fill:#ffffff"
     id="path336"
     d="M1687,760.89v14h-2.61v-2.19c-.84,1.74-3.09,2.49-4.65,2.49-3.51,0-5.67-2.28-5.64-6.21v-8.1h2.61v8c0,2.34,1.41,3.78,3.36,3.78a4,4,0,0,0,4.32-4.14v-7.59Z" />
  <path
     style="fill:#ffffff"
     id="path338"
     d="M1700.51,761.13l-.42,2.46a4.85,4.85,0,0,0-2-.48c-2.79,0-3.9,3-3.9,6.66v5.13h-2.64v-14h2.64v3.18c.72-2.46,2.07-3.48,3.93-3.48A5.29,5.29,0,0,1,1700.51,761.13Z" />
  <path
     style="fill:#ffffff"
     id="path340"
     d="M1384.46,805h-11.4a4.24,4.24,0,0,0,4.59,3.72,4.51,4.51,0,0,0,4.08-2.13l2.28.9a7.3,7.3,0,1,1-6.45-10.92c4,0,7,2.82,7,7.26C1384.52,804.24,1384.49,804.63,1384.46,805Zm-2.55-2.25a4.09,4.09,0,0,0-4.35-3.72,4.14,4.14,0,0,0-4.47,3.72Z" />
  <path
     style="fill:#ffffff"
     id="path342"
     d="M1396.61,810.9l-4-5.49-4,5.49h-3.12l5.55-7.71-4.53-6.3h3.15l2.94,4.17,2.94-4.17h3.18l-4.56,6.33,5.52,7.68Z" />
  <path
     style="fill:#ffffff"
     id="path344"
     d="M1414.82,805h-11.4a4.24,4.24,0,0,0,4.59,3.72,4.51,4.51,0,0,0,4.08-2.13l2.28.9a7.3,7.3,0,1,1-6.45-10.92c4,0,7,2.82,7,7.26C1414.88,804.24,1414.85,804.63,1414.82,805Zm-2.55-2.25a4.09,4.09,0,0,0-4.35-3.72,4.14,4.14,0,0,0-4.47,3.72Z" />
  <path
     style="fill:#ffffff"
     id="path346"
     d="M1427.42,797.13l-.42,2.46a4.85,4.85,0,0,0-2-.48c-2.79,0-3.9,3-3.9,6.66v5.13h-2.64v-14h2.64v3.18c.72-2.46,2.07-3.48,3.93-3.48A5.29,5.29,0,0,1,1427.42,797.13Z" />
  <path
     style="fill:#ffffff"
     id="path348"
     d="M1428.65,803.88a7.53,7.53,0,0,1,12.87-5.07l-1.65,1.71a5,5,0,0,0-3.6-1.47,4.83,4.83,0,1,0,0,9.66,5,5,0,0,0,3.6-1.47l1.65,1.71a7.08,7.08,0,0,1-5.34,2.22A7.24,7.24,0,0,1,1428.65,803.88Z" />
  <path
     style="fill:#ffffff"
     id="path350"
     d="M1444.28,791.73a1.85,1.85,0,1,1,1.83,1.74A1.78,1.78,0,0,1,1444.28,791.73Zm.54,5.16h2.61v14h-2.61Z" />
  <path
     style="fill:#ffffff"
     id="path352"
     d="M1450.85,806.73h2.43c0,1.2,1.08,2.19,2.79,2.19s2.82-.81,2.82-1.95-.81-1.59-1.92-1.83l-1.92-.45c-2.34-.63-3.69-1.77-3.69-4s2-4.08,4.8-4.08c2.37,0,4.83,1.26,4.83,4.08h-2.52a2.11,2.11,0,0,0-2.25-1.8,2,2,0,0,0-2.25,1.89c0,1,.9,1.47,1.8,1.68l2.07.51c2.91.72,3.66,2.46,3.66,4,0,2.61-2.52,4.2-5.43,4.2C1453.55,811.2,1451,809.61,1450.85,806.73Z" />
  <path
     style="fill:#ffffff"
     id="path354"
     d="M1478.18,805h-11.4a4.24,4.24,0,0,0,4.59,3.72,4.51,4.51,0,0,0,4.08-2.13l2.28.9a7.3,7.3,0,1,1-6.45-10.92c4,0,7,2.82,7,7.26C1478.24,804.24,1478.21,804.63,1478.18,805Zm-2.55-2.25a4.09,4.09,0,0,0-4.35-3.72,4.14,4.14,0,0,0-4.47,3.72Z" />
  <path
     style="fill:#ffffff"
     id="path356"
     d="M1479.44,815.19a10.45,10.45,0,0,0,2.28-8.07h2.64a10,10,0,0,1-3.12,8.61Z" />
  <path
     style="fill:#ffffff"
     id="path358"
     d="M1517.09,796.89l-5.22,14h-2.19l-3.87-10.41-3.72,10.41h-2.16l-5.34-14h2.82l3.57,10,3.57-10h2.55l3.6,10,3.57-10Z" />
  <path
     style="fill:#ffffff"
     id="path360"
     d="M1532.72,805h-11.4a4.24,4.24,0,0,0,4.59,3.72,4.51,4.51,0,0,0,4.08-2.13l2.28.9a7.3,7.3,0,1,1-6.45-10.92c4,0,7,2.82,7,7.26C1532.78,804.24,1532.75,804.63,1532.72,805Zm-2.55-2.25a4.09,4.09,0,0,0-4.35-3.72,4.14,4.14,0,0,0-4.47,3.72Z" />
  <path
     style="fill:#ffffff"
     id="path362"
     d="M1534.43,797.28a10.34,10.34,0,0,0,2.28-8h2.4a9.81,9.81,0,0,1-3.12,8.61Z" />
  <path
     style="fill:#ffffff"
     id="path364"
     d="M1555.19,796.89l-5.85,14h-2.55l-5.82-14h2.79l4.32,10.68,4.29-10.68Z" />
  <path
     style="fill:#ffffff"
     id="path366"
     d="M1570.7,805h-11.4a4.24,4.24,0,0,0,4.59,3.72,4.51,4.51,0,0,0,4.08-2.13l2.28.9a7.3,7.3,0,1,1-6.45-10.92c4,0,7,2.82,7,7.26C1570.76,804.24,1570.73,804.63,1570.7,805Zm-2.55-2.25a4.09,4.09,0,0,0-4.35-3.72,4.14,4.14,0,0,0-4.47,3.72Z" />
  <path
     style="fill:#ffffff"
     id="path368"
     d="M1595.57,796.89v11.88c0,6.63-3,9.11-7.62,9.11a7.1,7.1,0,0,1-6.3-3.74l2.22-1.17a4.72,4.72,0,0,0,4.08,2.46c3.09,0,5-1.74,5-6.48v-.27a5.73,5.73,0,0,1-5,2.52,7.31,7.31,0,0,1,0-14.61,5.65,5.65,0,0,1,5,2.49v-2.19Zm-2.61,7a4.74,4.74,0,0,0-4.77-4.8,4.59,4.59,0,0,0-4.59,4.8,4.68,4.68,0,1,0,9.36,0Z" />
  <path
     style="fill:#ffffff"
     id="path370"
     d="M1599.17,803.85a7.34,7.34,0,0,1,14.67,0,7.34,7.34,0,1,1-14.67,0Zm12.06,0a4.71,4.71,0,1,0-4.74,4.89A4.71,4.71,0,0,0,1611.23,803.85Z" />
  <path
     style="fill:#ffffff"
     id="path372"
     d="M1623.92,799.14h-3V810.9h-2.61V799.14h-2.52v-2.25h2.52v-5.31h2.61v5.31h3Z" />
  <path
     style="fill:#ffffff"
     id="path374"
     d="M1646.81,796.89l-8.7,20.82h-2.76l2.91-7.2-5.61-13.62h2.82l4.23,10.32,4.29-10.32Z" />
  <path
     style="fill:#ffffff"
     id="path376"
     d="M1648.16,803.85a7.34,7.34,0,0,1,14.67,0,7.34,7.34,0,1,1-14.67,0Zm12.06,0a4.71,4.71,0,1,0-4.74,4.89A4.71,4.71,0,0,0,1660.22,803.85Z" />
  <path
     style="fill:#ffffff"
     id="path378"
     d="M1679.18,796.89v14h-2.61v-2.19c-.84,1.74-3.09,2.49-4.65,2.49-3.51,0-5.67-2.28-5.64-6.21v-8.1h2.61v8c0,2.34,1.41,3.78,3.36,3.78a4,4,0,0,0,4.32-4.14v-7.59Z" />
  <path
     style="fill:#ffffff"
     id="path380"
     d="M232.49,345.15c-.75,3.13-1.51,6.26-2.26,9.4q-3.4,14.22-6.82,28.45c-.63,2.61-2,4.77-4.8,5.29s-5.65.15-7.74-2.2a6.8,6.8,0,0,1-1.4-6.09c2.05-11.2,4.16-22.39,6.12-33.61.95-5.43,1.56-10.91,2.42-16.36,1-6.33,2.22-12.64,3.18-19a76.61,76.61,0,0,0,.82-9.69c.18-8.83.19-17.67.29-26.51,0-3.13.74-4.05,3.75-5,10.45-3.15,20.9-6.32,31.37-9.41a9.67,9.67,0,0,1,4-.39,5.92,5.92,0,0,1,4.39,8.66,8.34,8.34,0,0,1-5.24,4.35c-7.7,2.57-15.37,5.2-23.06,7.77-.9.3-1.23.63-1.09,1.66.64,4.93,1.15,9.88,1.76,14.82a5.26,5.26,0,0,0,.74,1.6c.66,1.25,1.34,2.49,1.93,3.87a29.14,29.14,0,0,1-3.63-2.76,4.52,4.52,0,0,1-1.06-2.51c-.61-4.65-1-9.32-1.66-14-.58-4.12.58-4,3.23-4.9L260,271.18a6.54,6.54,0,0,0,3.52-2.37,4.58,4.58,0,0,0,.27-5.17,4.37,4.37,0,0,0-4.95-1.47q-9.8,2.91-19.58,5.85l-12.64,3.79c-2.1.63-2.25.85-2.27,3-.07,7.61-.26,15.22-.18,22.83.08,7.33-1.07,14.5-2.26,21.69-1.41,8.57-2.62,17.17-4,25.74-1.17,7.07-2.47,14.13-3.76,21.18-.85,4.68-1.79,9.34-2.67,14-.65,3.53,1.06,5.56,4.61,6.09,3.28.5,4.94-1.7,5.5-4.06q4.86-20.4,9.76-40.79c0-.07,0-.16,0-.21.33-.4.61-1,1-1.15.7-.22.94.44,1.13,1q1.05,3.07,2.12,6.13,5.88,17.09,11.75,34.16a6.42,6.42,0,0,0,2.39,3.37,4.54,4.54,0,0,0,7.14-4.65c-.89-3.34-1.86-6.66-2.88-10q-4.71-15.18-9.52-30.32c-.38-1.18-1.16-2.23-1.66-3.38-2-4.74-1.71-9.57-.41-14.41a41.68,41.68,0,0,1,1.36-4c.4-1.06,1-1.23,1.9-.56q5.52,4.08,11,8.19a1.24,1.24,0,0,1,.34,2q-2.37,3-4.71,6.07c-.41.54-.92.75-1.49.34s-.5-1-.08-1.59c1.16-1.52,2.33-3,3.5-4.55.24-.3.47-.62.75-1l-9.74-7.28c-1.9,5.39-3,10.78-.48,16,1.92,4,3.07,8.22,4.66,12.3l.31.82c1.93-2.3,3.8-4.53,5.66-6.77,2.83-3.37,5.71-6.71,8.45-10.15a26.23,26.23,0,0,0,3.05-4.81c1.22-2.54.65-4.49-1.57-6.18-6-4.54-12-9-18-13.56l-.85-.66c1.31.17,2.56.32,3.79.52a2.06,2.06,0,0,1,.85.42c4.85,3.63,9.64,7.35,14.54,10.9,4.4,3.19,4.88,6.55,2,11.46a57.47,57.47,0,0,1-5.58,7.14Q256.61,344,251,350.63a1.45,1.45,0,0,0-.28,1.56c2.61,8.65,5.19,17.32,7.81,26,.83,2.72.77,5.3-1.22,7.51-3.27,3.61-9.2,2.47-11.23-2.25-1.28-3-2.22-6.1-3.28-9.16L233.06,346c-.1-.3-.22-.6-.34-.9Z" />
  <path
     style="fill:#ffffff"
     id="path382"
     d="M262.3,293c0,7.16-6.21,12.95-13.14,12.23a9.74,9.74,0,0,1-8.51-8.62,12.52,12.52,0,0,1,9.74-13.52A9.81,9.81,0,0,1,262.3,293Zm-11.88,10.28A10.35,10.35,0,0,0,260.26,292,7.82,7.82,0,0,0,250,285.24a10.62,10.62,0,0,0-7.37,9.22C242.28,299.43,245.69,303.26,250.42,303.25Z" />
  <path
     style="fill:#ffffff"
     id="path384"
     d="M282.09,362.37H261.44a2.36,2.36,0,0,1-1.07-.06,1.62,1.62,0,0,1-.82-.94c0-.27.38-.72.71-.91a2.15,2.15,0,0,1,1.06-.1h41.52c.22,0,.43,0,.65,0,.64,0,1.17.29,1.17,1s-.49,1-1.16,1H282.09Z" />
  <path
     style="fill:#ffffff"
     id="path386"
     d="M272.54,356.36h-13.2a2.35,2.35,0,0,1-1.07-.09,1.56,1.56,0,0,1-.73-.9c0-.28.31-.69.59-.89a1.71,1.71,0,0,1,.94-.17H286a1.5,1.5,0,0,1,.84.12c.3.24.72.66.68.94a1.39,1.39,0,0,1-.83.91,6.93,6.93,0,0,1-1.83.08Z" />
  <path
     style="fill:#ffffff"
     id="path388"
     d="M191.17,362.37H178c-.32,0-.71.09-.95-.05s-.84-.6-.85-.92.44-.74.79-1,.63-.07.95-.07h26.5c.26,0,.58-.09.75,0a9,9,0,0,1,1,1c-.36.32-.7.9-1.08.92-1.65.1-3.31.05-5,.05Z" />
  <path
     style="fill:#ffffff"
     id="path390"
     d="M274.52,368.4H263.27c-.32,0-.71.09-.95,0s-.73-.58-.75-.89a1.41,1.41,0,0,1,.65-1,2.16,2.16,0,0,1,1.06-.09h22.6c.29,0,.65-.09.85,0s.8.62.8,1-.46.72-.81.94-.63,0-1,0Z" />
  <path
     style="fill:#ffffff"
     id="path392"
     d="M197.12,356.36h-9.18a2.25,2.25,0,0,1-1.05-.11,1.33,1.33,0,0,1-.67-.85,1.38,1.38,0,0,1,.56-.91,1.73,1.73,0,0,1,.93-.18h19c.72,0,1.46.1,1.48,1s-.73,1-1.46,1Z" />
  <path
     style="fill:#ffffff"
     id="path394"
     d="M224.33,329.51a129.37,129.37,0,0,1,2.95-17.28c.18-.75.6-1.22,1.38-1s.73.86.58,1.51a121.17,121.17,0,0,0-2.91,17.34c-.06.67-.35,1.12-1.06,1.1s-1-.55-.94-1.2C224.34,329.81,224.33,329.63,224.33,329.51Z" />
  <path
     style="fill:#ffffff"
     id="path396"
     d="M195.13,368.4c-2.48,0-5,0-7.44,0-.74,0-1.48-.05-1.5-1s.69-1,1.44-1c5,0,10.08,0,15.11,0,.76,0,1.47.14,1.45,1s-.76,1-1.5,1Z" />
  <path
     style="fill:#ffffff"
     id="path398"
     d="M286.86,296.39a2.92,2.92,0,0,1-.13,1.16c-.19.35-.66.84-.92.79a1.44,1.44,0,0,1-1-.9,3.86,3.86,0,0,1,0-1.91c.1-.43.59-.76.91-1.13a6.61,6.61,0,0,1,1,1c.15.23,0,.62,0,.95Z" />
  <path
     style="fill:#ffffff"
     id="path400"
     d="M274.44,321.52a.94.94,0,0,1,.84,1.43,9.17,9.17,0,0,1-1.64,1.82,1,1,0,0,1-1.52-.69C272.05,323.4,273.77,321.52,274.44,321.52Z" />
  <path
     style="fill:#ffffff"
     id="path402"
     d="M269,263.31c.83.86,1.62,1.63,2.33,2.48.1.12-.14.75-.38.88a1.24,1.24,0,0,1-1.08,0,8.17,8.17,0,0,1-1.71-1.45,1.31,1.31,0,0,1-.14-1.07C268.11,263.91,268.5,263.73,269,263.31Z" />
  <path
     style="fill:#ffffff"
     id="path404"
     d="M279.65,274.84c-.39.44-.59.85-.89,1a1.24,1.24,0,0,1-1.05-.22,8.45,8.45,0,0,1-1.33-1.81,1.19,1.19,0,0,1,.12-1.07c.19-.24.87-.43,1-.3C278.24,273.11,278.89,273.94,279.65,274.84Z" />
  <path
     style="fill:#ffffff"
     id="path406"
     d="M283,310.47c-.31-.69-.75-1.19-.7-1.64a4.56,4.56,0,0,1,.77-2,1.36,1.36,0,0,1,1.21-.47,1.39,1.39,0,0,1,.54,1.19,5.7,5.7,0,0,1-.71,1.9C283.94,309.78,283.56,310,283,310.47Z" />
  <path
     style="fill:#ffffff"
     id="path408"
     d="M282.62,312.81a24.4,24.4,0,0,1-1.6,2.43,1.17,1.17,0,0,1-1.13,0,1.21,1.21,0,0,1-.29-1.11,6.9,6.9,0,0,1,1.1-1.94,1.26,1.26,0,0,1,1.11-.28C282.12,312,282.32,312.44,282.62,312.81Z" />
  <path
     style="fill:#ffffff"
     id="path410"
     d="M282.75,280.06c-.35.37-.56.77-.86.86a1.13,1.13,0,0,1-1-.23,8.86,8.86,0,0,1-1.19-2.15,1.09,1.09,0,0,1,.37-1c.24-.18.91-.23,1-.06A30.13,30.13,0,0,1,282.75,280.06Z" />
  <path
     style="fill:#ffffff"
     id="path412"
     d="M285.1,285.67c-.3.3-.55.74-.87.8a1.22,1.22,0,0,1-1.08-.4,7.27,7.27,0,0,1-.82-2.21,1.2,1.2,0,0,1,.53-1,1.17,1.17,0,0,1,1.1.23A22,22,0,0,1,285.1,285.67Z" />
  <path
     style="fill:#ffffff"
     id="path414"
     d="M275.84,270.09c-.31.41-.46.79-.73.92a1.12,1.12,0,0,1-1,0,7.42,7.42,0,0,1-1.59-1.72,1.31,1.31,0,0,1,.2-1.27,1.2,1.2,0,0,1,1.2,0A21.31,21.31,0,0,1,275.84,270.09Z" />
  <path
     style="fill:#ffffff"
     id="path416"
     d="M286.46,301.34a9.1,9.1,0,0,1-.47,2.19,1.62,1.62,0,0,1-1.19.73c-.23,0-.66-.68-.69-1.07a3.9,3.9,0,0,1,.35-1.88,1.53,1.53,0,0,1,1.13-.81C285.94,300.51,286.25,301.12,286.46,301.34Z" />
  <path
     style="fill:#ffffff"
     id="path418"
     d="M279.42,318c-.7.82-1.33,1.64-2.06,2.34-.15.14-.82,0-1-.26a1.14,1.14,0,0,1-.14-1.07,8.42,8.42,0,0,1,1.43-1.88,1.23,1.23,0,0,1,1.07-.1C279,317.1,279.1,317.52,279.42,318Z" />
  <path
     style="fill:#ffffff"
     id="path420"
     d="M286.49,291.51c-.23.24-.48.75-.82.8a1.24,1.24,0,0,1-1.09-.53,7.5,7.5,0,0,1-.45-2.4,1.11,1.11,0,0,1,.72-.84,1.31,1.31,0,0,1,1.08.58A13.63,13.63,0,0,1,286.49,291.51Z" />
  <path
     style="fill:#ffffff"
     id="path422"
     d="M230.78,307.25c-.71.41-1.15.86-1.53.82s-.61-.63-.91-1c.36-.31.71-.83,1.11-.88S230.14,306.72,230.78,307.25Z" />
  <path
     style="fill:#ffffff"
     id="path424"
     d="M249.32,334.82c.52.64,1.05,1,1,1.33a1.44,1.44,0,0,1-.88,1c-.26.06-.93-.49-1-.81S248.91,335.54,249.32,334.82Z" />
  <path
     style="fill:#ffffff"
     id="path426"
     d="M774.26,728.61A10.47,10.47,0,1,1,784.7,739.2,10.45,10.45,0,0,1,774.26,728.61Zm18.21,0a7.75,7.75,0,1,0-7.77,8.07A7.89,7.89,0,0,0,792.47,728.61Z" />
  <path
     style="fill:#ffffff"
     id="path428"
     d="M811.67,724.89v14h-2.61v-2.19c-.84,1.74-3.09,2.49-4.65,2.49-3.51,0-5.67-2.28-5.64-6.21v-8.1h2.61v8c0,2.34,1.41,3.78,3.36,3.78a4,4,0,0,0,4.32-4.14v-7.59Z" />
  <path
     style="fill:#ffffff"
     id="path430"
     d="M825.2,725.13l-.42,2.46a4.85,4.85,0,0,0-2-.48c-2.79,0-3.9,3-3.9,6.66v5.13H816.2v-14h2.64v3.18c.72-2.46,2.07-3.48,3.93-3.48A5.29,5.29,0,0,1,825.2,725.13Z" />
  <path
     style="fill:#ffffff"
     id="path432"
     d="M833.51,734.73h2.43c0,1.2,1.08,2.19,2.79,2.19s2.82-.81,2.82-1.95-.81-1.59-1.92-1.83l-1.92-.45c-2.34-.63-3.69-1.77-3.69-4s2-4.08,4.8-4.08c2.37,0,4.83,1.26,4.83,4.08h-2.52a2.11,2.11,0,0,0-2.25-1.8,2,2,0,0,0-2.25,1.89c0,1,.9,1.47,1.8,1.68l2.07.51c2.91.72,3.66,2.46,3.66,4,0,2.61-2.52,4.2-5.43,4.2C836.21,739.2,833.63,737.61,833.51,734.73Z" />
  <path
     style="fill:#ffffff"
     id="path434"
     d="M847.16,719.73a1.85,1.85,0,1,1,1.83,1.74A1.78,1.78,0,0,1,847.16,719.73Zm.54,5.16h2.61v14H847.7Z" />
  <path
     style="fill:#ffffff"
     id="path436"
     d="M876.88,730.8v8.1h-2.61V731c0-2.34-1.29-3.84-3.33-3.84-2.49,0-4,2.07-3.75,4.77l0-.12v7.14h-2.61V731c0-2.37-1.29-3.84-3.15-3.84a3.82,3.82,0,0,0-4,4.2v7.59h-2.61v-14h2.61V727a5.24,5.24,0,0,1,9.12.48,5.19,5.19,0,0,1,4.89-2.91C875,724.59,876.88,726.87,876.88,730.8Z" />
  <path
     style="fill:#ffffff"
     id="path438"
     d="M895.84,731.91a6.91,6.91,0,0,1-7,7.29,5.59,5.59,0,0,1-5-2.49v9h-2.61V724.89h2.61v2.22a5.73,5.73,0,0,1,5-2.52A7,7,0,0,1,895.84,731.91Zm-2.64,0a4.68,4.68,0,1,0-9.36,0,4.74,4.74,0,0,0,4.74,4.8A4.59,4.59,0,0,0,893.2,731.94Z" />
  <path
     style="fill:#ffffff"
     id="path440"
     d="M899.47,717.24h2.61V738.9h-2.61Z" />
  <path
     style="fill:#ffffff"
     id="path442"
     d="M919.75,733h-11.4a4.24,4.24,0,0,0,4.59,3.72,4.51,4.51,0,0,0,4.08-2.13l2.28.9a7.3,7.3,0,1,1-6.45-10.92c4,0,7,2.82,7,7.26C919.81,732.24,919.78,732.63,919.75,733Zm-2.55-2.25a4.09,4.09,0,0,0-4.35-3.72,4.14,4.14,0,0,0-4.47,3.72Z" />
  <path
     style="fill:#ffffff"
     id="path444"
     d="M944.62,724.89v11.88c0,6.63-3,9.11-7.62,9.11a7.1,7.1,0,0,1-6.3-3.74l2.22-1.17a4.72,4.72,0,0,0,4.08,2.46c3.09,0,5-1.74,5-6.48v-.27a5.73,5.73,0,0,1-5,2.52,7.31,7.31,0,0,1,0-14.61,5.65,5.65,0,0,1,5,2.49v-2.19Zm-2.61,7a4.74,4.74,0,0,0-4.77-4.8,4.59,4.59,0,0,0-4.59,4.8,4.68,4.68,0,1,0,9.36,0Z" />
  <path
     style="fill:#ffffff"
     id="path446"
     d="M962.86,724.89v14h-2.61v-2.22a5.73,5.73,0,0,1-5,2.52,7.31,7.31,0,0,1,0-14.61,5.59,5.59,0,0,1,5,2.49v-2.19Zm-2.61,7a4.74,4.74,0,0,0-4.77-4.8,4.59,4.59,0,0,0-4.59,4.8,4.68,4.68,0,1,0,9.36,0Z" />
  <path
     style="fill:#ffffff"
     id="path448"
     d="M989.47,730.8v8.1h-2.61V731c0-2.34-1.29-3.84-3.33-3.84-2.49,0-4,2.07-3.75,4.77l0-.12v7.14h-2.61V731c0-2.37-1.29-3.84-3.15-3.84a3.82,3.82,0,0,0-4,4.2v7.59h-2.61v-14H970V727a5.24,5.24,0,0,1,9.12.48,5.19,5.19,0,0,1,4.89-2.91C987.55,724.59,989.47,726.87,989.47,730.8Z" />
  <path
     style="fill:#ffffff"
     id="path450"
     d="M1007,733h-11.4a4.24,4.24,0,0,0,4.59,3.72,4.51,4.51,0,0,0,4.08-2.13l2.28.9a7.3,7.3,0,1,1-6.45-10.92c4,0,7,2.82,7,7.26C1007,732.24,1007,732.63,1007,733Zm-2.55-2.25a4.09,4.09,0,0,0-4.35-3.72,4.14,4.14,0,0,0-4.47,3.72Z" />
  <path
     style="fill:#ffffff"
     id="path452"
     d="M1031.05,730.8v8.1h-2.61V731c0-2.34-1.44-3.78-3.39-3.78a4,4,0,0,0-4.29,4.14v7.59h-2.61V717.24h2.61V727c.84-1.71,3.12-2.43,4.65-2.43C1028.89,724.59,1031.08,726.87,1031.05,730.8Z" />
  <path
     style="fill:#ffffff"
     id="path454"
     d="M1048.54,733h-11.4a4.24,4.24,0,0,0,4.59,3.72,4.51,4.51,0,0,0,4.08-2.13l2.28.9a7.3,7.3,0,1,1-6.45-10.92c4,0,7,2.82,7,7.26C1048.6,732.24,1048.57,732.63,1048.54,733Zm-2.55-2.25a4.09,4.09,0,0,0-4.35-3.72,4.14,4.14,0,0,0-4.47,3.72Z" />
  <path
     style="fill:#ffffff"
     id="path456"
     d="M1052.14,717.24h2.61V738.9h-2.61Z" />
  <path
     style="fill:#ffffff"
     id="path458"
     d="M1073.89,731.91a6.91,6.91,0,0,1-7,7.29,5.59,5.59,0,0,1-5-2.49v9h-2.61V724.89h2.61v2.22a5.73,5.73,0,0,1,5-2.52A7,7,0,0,1,1073.89,731.91Zm-2.64,0a4.68,4.68,0,1,0-9.36,0,4.74,4.74,0,0,0,4.74,4.8A4.59,4.59,0,0,0,1071.25,731.94Z" />
  <path
     style="fill:#ffffff"
     id="path460"
     d="M1076.41,734.73h2.43c0,1.2,1.08,2.19,2.79,2.19s2.82-.81,2.82-1.95-.81-1.59-1.92-1.83l-1.92-.45c-2.34-.63-3.69-1.77-3.69-4s2-4.08,4.8-4.08c2.37,0,4.83,1.26,4.83,4.08H1084a2.11,2.11,0,0,0-2.25-1.8,2,2,0,0,0-2.25,1.89c0,1,.9,1.47,1.8,1.68l2.07.51c2.91.72,3.66,2.46,3.66,4,0,2.61-2.52,4.2-5.43,4.2C1079.11,739.2,1076.53,737.61,1076.41,734.73Z" />
  <path
     style="fill:#ffffff"
     id="path462"
     d="M787.49,760.89l-8.7,20.82H776l2.91-7.2-5.61-13.62h2.82l4.23,10.32,4.29-10.32Z" />
  <path
     style="fill:#ffffff"
     id="path464"
     d="M788.84,767.85a7.34,7.34,0,0,1,14.67,0,7.34,7.34,0,1,1-14.67,0Zm12.06,0a4.71,4.71,0,1,0-4.74,4.89A4.71,4.71,0,0,0,800.9,767.85Z" />
  <path
     style="fill:#ffffff"
     id="path466"
     d="M819.86,760.89v14h-2.61v-2.19c-.84,1.74-3.09,2.49-4.65,2.49-3.51,0-5.67-2.28-5.64-6.21v-8.1h2.61v8c0,2.34,1.41,3.78,3.36,3.78a4,4,0,0,0,4.32-4.14v-7.59Z" />
  <path
     style="fill:#ffffff"
     id="path468"
     d="M830.87,770.73h2.43c0,1.2,1.08,2.19,2.79,2.19s2.82-.81,2.82-1.95-.81-1.59-1.92-1.83l-1.92-.45c-2.34-.63-3.69-1.77-3.69-4s2-4.08,4.8-4.08c2.37,0,4.83,1.26,4.83,4.08h-2.52a2.11,2.11,0,0,0-2.25-1.8,2,2,0,0,0-2.25,1.89c0,1,.9,1.47,1.8,1.68l2.07.51c2.91.72,3.66,2.46,3.66,4,0,2.61-2.52,4.2-5.43,4.2C833.57,775.2,831,773.61,830.87,770.73Z" />
  <path
     style="fill:#ffffff"
     id="path470"
     d="M851.77,763.14h-3V774.9h-2.61V763.14h-2.52v-2.25h2.52v-5.31h2.61v5.31h3Z" />
  <path
     style="fill:#ffffff"
     id="path472"
     d="M868.06,760.89v14h-2.6v-2.22a5.75,5.75,0,0,1-5,2.52,7.31,7.31,0,0,1,0-14.61,5.61,5.61,0,0,1,5,2.49v-2.19Zm-2.6,7a4.74,4.74,0,0,0-4.77-4.8,4.59,4.59,0,0,0-4.59,4.8,4.68,4.68,0,1,0,9.36,0Z" />
  <path
     style="fill:#ffffff"
     id="path474"
     d="M885,760.89l-8.7,20.82h-2.75l2.9-7.2-5.61-13.62h2.83l4.22,10.32,4.29-10.32Z" />
  <path
     style="fill:#ffffff"
     id="path476"
     d="M908.17,766.8v8.1h-2.61V767c0-2.34-1.44-3.78-3.39-3.78a4,4,0,0,0-4.29,4.14v7.59h-2.61V753.24h2.61V763c.85-1.71,3.12-2.43,4.65-2.43C906,760.59,908.2,762.87,908.17,766.8Z" />
  <path
     style="fill:#ffffff"
     id="path478"
     d="M925.66,769H914.27a4.23,4.23,0,0,0,4.58,3.72,4.51,4.51,0,0,0,4.08-2.13l2.28.9a7.3,7.3,0,1,1-6.45-10.92c4,0,7,2.82,7,7.26C925.72,768.24,925.69,768.63,925.66,769Zm-2.55-2.25a4.09,4.09,0,0,0-4.35-3.72,4.14,4.14,0,0,0-4.47,3.72Z" />
  <path
     style="fill:#ffffff"
     id="path480"
     d="M942.94,760.89v14h-2.61v-2.22a5.73,5.73,0,0,1-5,2.52,7.31,7.31,0,0,1,0-14.61,5.59,5.59,0,0,1,5,2.49v-2.19Zm-2.61,7a4.74,4.74,0,0,0-4.77-4.8,4.59,4.59,0,0,0-4.59,4.8,4.68,4.68,0,1,0,9.36,0Z" />
  <path
     style="fill:#ffffff"
     id="path482"
     d="M947.5,753.24h2.61V774.9H947.5Z" />
  <path
     style="fill:#ffffff"
     id="path484"
     d="M961.36,763.14h-3V774.9h-2.61V763.14H953.2v-2.25h2.52v-5.31h2.61v5.31h3Z" />
  <path
     style="fill:#ffffff"
     id="path486"
     d="M977.17,766.8v8.1h-2.61V767c0-2.34-1.44-3.78-3.39-3.78a4,4,0,0,0-4.29,4.14v7.59h-2.61V753.24h2.61V763c.84-1.71,3.12-2.43,4.65-2.43C975,760.59,977.2,762.87,977.17,766.8Z" />
  <path
     style="fill:#ffffff"
     id="path488"
     d="M993.58,760.89l-8.7,20.82h-2.76l2.91-7.2-5.61-13.62h2.82l4.23,10.32,4.29-10.32Z" />
  <path
     style="fill:#ffffff"
     id="path490"
     d="M1024.48,760.89l-5.22,14h-2.19l-3.87-10.41-3.72,10.41h-2.16l-5.34-14h2.82l3.57,10,3.57-10h2.55l3.6,10,3.57-10Z" />
  <path
     style="fill:#ffffff"
     id="path492"
     d="M1026.67,755.73a1.85,1.85,0,1,1,1.83,1.74A1.78,1.78,0,0,1,1026.67,755.73Zm.54,5.16h2.61v14h-2.61Z" />
  <path
     style="fill:#ffffff"
     id="path494"
     d="M1041.07,763.14h-3V774.9h-2.61V763.14h-2.52v-2.25h2.52v-5.31H1038v5.31h3Z" />
  <path
     style="fill:#ffffff"
     id="path496"
     d="M1056.88,766.8v8.1h-2.61V767c0-2.34-1.44-3.78-3.39-3.78a4,4,0,0,0-4.29,4.14v7.59H1044V753.24h2.61V763c.84-1.71,3.12-2.43,4.65-2.43C1054.72,760.59,1056.91,762.87,1056.88,766.8Z" />
  <path
     style="fill:#ffffff"
     id="path498"
     d="M1060.27,767.85a7.34,7.34,0,0,1,14.67,0,7.34,7.34,0,1,1-14.67,0Zm12.06,0a4.71,4.71,0,1,0-4.74,4.89A4.71,4.71,0,0,0,1072.33,767.85Z" />
  <path
     style="fill:#ffffff"
     id="path500"
     d="M1091.29,760.89v14h-2.61v-2.19c-.84,1.74-3.09,2.49-4.65,2.49-3.51,0-5.67-2.28-5.64-6.21v-8.1H1081v8c0,2.34,1.41,3.78,3.36,3.78a4,4,0,0,0,4.32-4.14v-7.59Z" />
  <path
     style="fill:#ffffff"
     id="path502"
     d="M1102.54,763.14h-3V774.9h-2.61V763.14h-2.52v-2.25h2.52v-5.31h2.61v5.31h3Z" />
  <path
     style="fill:#ffffff"
     id="path504"
     d="M788.78,796.89v14h-2.61v-2.22a5.73,5.73,0,0,1-5,2.52,7.31,7.31,0,0,1,0-14.61,5.59,5.59,0,0,1,5,2.49v-2.19Zm-2.61,7a4.74,4.74,0,0,0-4.77-4.8,4.59,4.59,0,0,0-4.59,4.8,4.68,4.68,0,1,0,9.36,0Z" />
  <path
     style="fill:#ffffff"
     id="path506"
     d="M793.34,789.24H796V810.9h-2.61Z" />
  <path
     style="fill:#ffffff"
     id="path508"
     d="M800.48,789.24h2.6V810.9h-2.6Z" />
  <path
     style="fill:#ffffff"
     id="path510"
     d="M821.92,799.14h-3V810.9h-2.61V799.14h-2.52v-2.25h2.52v-5.31h2.61v5.31h3Z" />
  <path
     style="fill:#ffffff"
     id="path512"
     d="M837.73,802.8v8.1h-2.61V803c0-2.34-1.44-3.78-3.39-3.78a4,4,0,0,0-4.29,4.14v7.59h-2.61V789.24h2.61V799c.84-1.71,3.12-2.43,4.65-2.43C835.57,796.59,837.76,798.87,837.73,802.8Z" />
  <path
     style="fill:#ffffff"
     id="path514"
     d="M855.22,805h-11.4a4.24,4.24,0,0,0,4.59,3.72,4.51,4.51,0,0,0,4.08-2.13l2.28.9a7.3,7.3,0,1,1-6.45-10.92c4,0,7,2.82,7,7.26C855.28,804.24,855.25,804.63,855.22,805Zm-2.55-2.25a4.09,4.09,0,0,0-4.35-3.72,4.14,4.14,0,0,0-4.47,3.72Z" />
  <path
     style="fill:#ffffff"
     id="path516"
     d="M879.13,810.9h-2.61V799.14h-6.36V810.9h-2.61V799.14h-2.7v-2.25h2.7v-1.47c0-3.66,1.53-6.18,5.28-6.18h1.11v2.46h-.66c-2.49,0-3.15,1.53-3.12,3.36v1.83h9Zm.54-19.17a1.85,1.85,0,1,1-1.86-1.74A1.77,1.77,0,0,1,879.67,791.73Z" />
  <path
     style="fill:#ffffff"
     id="path518"
     d="M890.38,799.14h-3V810.9h-2.61V799.14h-2.52v-2.25h2.52v-5.31h2.61v5.31h3Z" />
  <path
     style="fill:#ffffff"
     id="path520"
     d="M906.19,802.8v8.1h-2.61V803c0-2.34-1.44-3.78-3.39-3.78a4,4,0,0,0-4.29,4.14v7.59h-2.61v-14h2.61V799c.84-1.71,3.12-2.43,4.65-2.43C904,796.59,906.22,798.87,906.19,802.8Z" />
  <path
     style="fill:#ffffff"
     id="path522"
     d="M923.68,805h-11.4a4.24,4.24,0,0,0,4.59,3.72,4.51,4.51,0,0,0,4.08-2.13l2.28.9a7.3,7.3,0,1,1-6.45-10.92c4,0,7,2.82,7,7.26C923.74,804.24,923.71,804.63,923.68,805Zm-2.55-2.25a4.09,4.09,0,0,0-4.35-3.72,4.14,4.14,0,0,0-4.47,3.72Z" />
  <path
     style="fill:#ffffff"
     id="path524"
     d="M926.17,806.73h2.43c0,1.2,1.08,2.19,2.79,2.19s2.82-.81,2.82-1.95-.81-1.59-1.92-1.83l-1.92-.45c-2.34-.63-3.69-1.77-3.69-4s2-4.08,4.8-4.08c2.37,0,4.83,1.26,4.83,4.08h-2.52a2.11,2.11,0,0,0-2.25-1.8,2,2,0,0,0-2.25,1.89c0,1,.9,1.47,1.8,1.68l2.07.51c2.91.72,3.66,2.46,3.66,4,0,2.61-2.52,4.2-5.43,4.2C928.87,811.2,926.29,809.61,926.17,806.73Z" />
  <path
     style="fill:#ffffff"
     id="path526"
     d="M939.25,806.73h2.43c0,1.2,1.08,2.19,2.79,2.19s2.82-.81,2.82-1.95-.81-1.59-1.92-1.83l-1.92-.45c-2.34-.63-3.69-1.77-3.69-4s2-4.08,4.8-4.08c2.37,0,4.83,1.26,4.83,4.08h-2.52a2.11,2.11,0,0,0-2.25-1.8,2,2,0,0,0-2.25,1.89c0,1,.9,1.47,1.8,1.68l2.07.51c2.91.72,3.66,2.46,3.66,4,0,2.61-2.52,4.2-5.43,4.2C942,811.2,939.37,809.61,939.25,806.73Z" />
  <path
     style="fill:#ffffff"
     id="path528"
     d="M957.07,815.25h1.59c2.31,0,2.64-1.92,2.61-3.57V796.89h2.61v14.82c0,3.48-1.23,6-5,6h-1.8Zm3.66-23.52a1.85,1.85,0,1,1,1.83,1.74A1.78,1.78,0,0,1,960.73,791.73Z" />
  <path
     style="fill:#ffffff"
     id="path530"
     d="M982.09,796.89v14h-2.61v-2.22a5.73,5.73,0,0,1-5,2.52,7.31,7.31,0,0,1,0-14.61,5.59,5.59,0,0,1,5,2.49v-2.19Zm-2.61,7a4.74,4.74,0,0,0-4.77-4.8,4.59,4.59,0,0,0-4.59,4.8,4.68,4.68,0,1,0,9.36,0Z" />
  <path
     style="fill:#ffffff"
     id="path532"
     d="M995.65,797.13l-.42,2.46a4.85,4.85,0,0,0-2-.48c-2.79,0-3.9,3-3.9,6.66v5.13h-2.64v-14h2.64v3.18c.72-2.46,2.07-3.48,3.93-3.48A5.29,5.29,0,0,1,995.65,797.13Z" />
  <path
     style="fill:#ffffff"
     id="path534"
     d="M1011.52,796.89v11.88c0,6.63-3,9.11-7.62,9.11a7.1,7.1,0,0,1-6.3-3.74l2.22-1.17a4.72,4.72,0,0,0,4.08,2.46c3.09,0,5-1.74,5-6.48v-.27a5.73,5.73,0,0,1-5,2.52,7.31,7.31,0,0,1,0-14.61,5.65,5.65,0,0,1,5,2.49v-2.19Zm-2.61,7a4.74,4.74,0,0,0-4.77-4.8,4.59,4.59,0,0,0-4.59,4.8,4.68,4.68,0,1,0,9.36,0Z" />
  <path
     style="fill:#ffffff"
     id="path536"
     d="M1015.12,803.85a7.34,7.34,0,0,1,14.67,0,7.34,7.34,0,1,1-14.67,0Zm12.06,0a4.71,4.71,0,1,0-4.74,4.89A4.71,4.71,0,0,0,1027.18,803.85Z" />
  <path
     style="fill:#ffffff"
     id="path538"
     d="M1046.32,802.8v8.1h-2.61V803c0-2.34-1.44-3.78-3.39-3.78a4,4,0,0,0-4.29,4.14v7.59h-2.61v-14H1036V799c.84-1.71,3.12-2.43,4.65-2.43C1044.16,796.59,1046.35,798.87,1046.32,802.8Z" />
  <path
     style="fill:#ffffff"
     id="path540"
     d="M171.7,718.23h8c5.88,0,9.33,4.5,9.33,10.38s-3.45,10.29-9.33,10.29h-8Zm8,18.15c4.35,0,6.6-3.36,6.6-7.77s-2.25-7.86-6.6-7.86h-5.28v15.63Z" />
  <path
     style="fill:#ffffff"
     id="path542"
     d="M206.56,724.89v14H204v-2.22a5.73,5.73,0,0,1-5,2.52,7.31,7.31,0,0,1,0-14.61,5.59,5.59,0,0,1,5,2.49v-2.19Zm-2.61,7a4.74,4.74,0,0,0-4.77-4.8,4.59,4.59,0,0,0-4.59,4.8,4.68,4.68,0,1,0,9.36,0Z" />
  <path
     style="fill:#ffffff"
     id="path544"
     d="M210.58,719.73a1.85,1.85,0,1,1,1.83,1.74A1.78,1.78,0,0,1,210.58,719.73Zm.54,5.16h2.61v14h-2.61Z" />
  <path
     style="fill:#ffffff"
     id="path546"
     d="M218.25,717.24h2.61V738.9h-2.61Z" />
  <path
     style="fill:#ffffff"
     id="path548"
     d="M237.78,724.89l-8.7,20.82h-2.76l2.91-7.2-5.61-13.62h2.82l4.23,10.32L235,724.89Z" />
  <path
     style="fill:#ffffff"
     id="path550"
     d="M261.18,733h-11.4a4.24,4.24,0,0,0,4.59,3.72,4.51,4.51,0,0,0,4.08-2.13l2.28.9a7.3,7.3,0,1,1-6.45-10.92c4,0,7,2.82,7,7.26C261.24,732.24,261.21,732.63,261.18,733Zm-2.55-2.25a4.09,4.09,0,0,0-4.35-3.72,4.14,4.14,0,0,0-4.47,3.72Z" />
  <path
     style="fill:#ffffff"
     id="path552"
     d="M273.33,738.9l-4-5.49-4,5.49h-3.12l5.55-7.71-4.53-6.3h3.15l2.94,4.17,2.94-4.17h3.18l-4.56,6.33,5.52,7.68Z" />
  <path
     style="fill:#ffffff"
     id="path554"
     d="M291.54,733h-11.4a4.24,4.24,0,0,0,4.59,3.72,4.51,4.51,0,0,0,4.08-2.13l2.28.9a7.3,7.3,0,1,1-6.45-10.92c4,0,7,2.82,7,7.26C291.6,732.24,291.57,732.63,291.54,733ZM289,730.77a4.09,4.09,0,0,0-4.35-3.72,4.14,4.14,0,0,0-4.47,3.72Z" />
  <path
     style="fill:#ffffff"
     id="path556"
     d="M304.14,725.13l-.42,2.46a4.85,4.85,0,0,0-2-.48c-2.79,0-3.9,3-3.9,6.66v5.13h-2.64v-14h2.64v3.18c.72-2.46,2.07-3.48,3.93-3.48A5.29,5.29,0,0,1,304.14,725.13Z" />
  <path
     style="fill:#ffffff"
     id="path558"
     d="M305.37,731.88a7.53,7.53,0,0,1,12.87-5.07l-1.65,1.71a5,5,0,0,0-3.6-1.47,4.83,4.83,0,1,0,0,9.66,5,5,0,0,0,3.6-1.47l1.65,1.71a7.08,7.08,0,0,1-5.34,2.22A7.24,7.24,0,0,1,305.37,731.88Z" />
  <path
     style="fill:#ffffff"
     id="path560"
     d="M321,719.73a1.85,1.85,0,1,1,1.83,1.74A1.78,1.78,0,0,1,321,719.73Zm.54,5.16h2.61v14h-2.61Z" />
  <path
     style="fill:#ffffff"
     id="path562"
     d="M327.57,734.73H330c0,1.2,1.08,2.19,2.79,2.19s2.82-.81,2.82-1.95-.81-1.59-1.92-1.83l-1.92-.45c-2.34-.63-3.69-1.77-3.69-4s2-4.08,4.8-4.08c2.37,0,4.83,1.26,4.83,4.08h-2.52a2.11,2.11,0,0,0-2.25-1.8,2,2,0,0,0-2.25,1.89c0,1,.9,1.47,1.8,1.68l2.07.51c2.91.72,3.66,2.46,3.66,4,0,2.61-2.52,4.2-5.43,4.2C330.27,739.2,327.69,737.61,327.57,734.73Z" />
  <path
     style="fill:#ffffff"
     id="path564"
     d="M354.9,733H343.5a4.24,4.24,0,0,0,4.59,3.72,4.51,4.51,0,0,0,4.08-2.13l2.28.9A7.3,7.3,0,1,1,348,724.59c4,0,7,2.82,7,7.26C355,732.24,354.93,732.63,354.9,733Zm-2.55-2.25a4.09,4.09,0,0,0-4.35-3.72,4.14,4.14,0,0,0-4.47,3.72Z" />
  <path
     style="fill:#ffffff"
     id="path566"
     d="M357.39,734.73h2.43c0,1.2,1.08,2.19,2.79,2.19s2.82-.81,2.82-1.95-.81-1.59-1.92-1.83l-1.92-.45c-2.34-.63-3.69-1.77-3.69-4s2-4.08,4.8-4.08c2.37,0,4.83,1.26,4.83,4.08H365a2.11,2.11,0,0,0-2.25-1.8,2,2,0,0,0-2.25,1.89c0,1,.9,1.47,1.8,1.68l2.07.51c2.91.72,3.66,2.46,3.66,4,0,2.61-2.52,4.2-5.43,4.2C360.09,739.2,357.51,737.61,357.39,734.73Z" />
  <path
     style="fill:#ffffff"
     id="path568"
     d="M385.89,727.14h-3V738.9h-2.61V727.14h-2.52v-2.25h2.52v-5.31h2.61v5.31h3Z" />
  <path
     style="fill:#ffffff"
     id="path570"
     d="M387.54,731.85a7.34,7.34,0,0,1,14.67,0,7.34,7.34,0,1,1-14.67,0Zm12.06,0a4.71,4.71,0,1,0-4.74,4.89A4.71,4.71,0,0,0,399.6,731.85Z" />
  <path
     style="fill:#ffffff"
     id="path572"
     d="M426.33,730.8v8.1h-2.61V731c0-2.34-1.44-3.78-3.39-3.78a4,4,0,0,0-4.29,4.14v7.59h-2.61V717.24H416V727c.84-1.71,3.12-2.43,4.65-2.43C424.17,724.59,426.36,726.87,426.33,730.8Z" />
  <path
     style="fill:#ffffff"
     id="path574"
     d="M443.82,733h-11.4a4.24,4.24,0,0,0,4.59,3.72,4.51,4.51,0,0,0,4.08-2.13l2.28.9a7.3,7.3,0,1,1-6.45-10.92c4,0,7,2.82,7,7.26C443.88,732.24,443.85,732.63,443.82,733Zm-2.55-2.25a4.09,4.09,0,0,0-4.35-3.72,4.14,4.14,0,0,0-4.47,3.72Z" />
  <path
     style="fill:#ffffff"
     id="path576"
     d="M447.42,717.24H450V738.9h-2.61Z" />
  <path
     style="fill:#ffffff"
     id="path578"
     d="M469.17,731.91a6.91,6.91,0,0,1-7,7.29,5.59,5.59,0,0,1-5-2.49v9h-2.61V724.89h2.61v2.22a5.73,5.73,0,0,1,5-2.52A7,7,0,0,1,469.17,731.91Zm-2.64,0a4.68,4.68,0,1,0-9.36,0,4.74,4.74,0,0,0,4.74,4.8A4.59,4.59,0,0,0,466.53,731.94Z" />
  <path
     style="fill:#ffffff"
     id="path580"
     d="M183.49,760.89l-8.7,20.82H172l2.91-7.2-5.61-13.62h2.82l4.23,10.32,4.29-10.32Z" />
  <path
     style="fill:#ffffff"
     id="path582"
     d="M184.84,767.85a7.34,7.34,0,0,1,14.67,0,7.34,7.34,0,1,1-14.67,0Zm12.06,0a4.71,4.71,0,1,0-4.74,4.89A4.71,4.71,0,0,0,196.9,767.85Z" />
  <path
     style="fill:#ffffff"
     id="path584"
     d="M215.86,760.89v14h-2.61v-2.19c-.84,1.74-3.09,2.49-4.65,2.49-3.51,0-5.67-2.28-5.64-6.21v-8.1h2.61v8c0,2.34,1.41,3.78,3.36,3.78a4,4,0,0,0,4.32-4.14v-7.59Z" />
  <path
     style="fill:#ffffff"
     id="path586"
     d="M226.87,770.73h2.43c0,1.2,1.08,2.19,2.79,2.19s2.82-.81,2.82-1.95-.81-1.59-1.92-1.83l-1.92-.45c-2.34-.63-3.69-1.77-3.69-4s2-4.08,4.8-4.08c2.37,0,4.83,1.26,4.83,4.08h-2.52a2.11,2.11,0,0,0-2.25-1.8,2,2,0,0,0-2.25,1.89c0,1,.9,1.47,1.8,1.68l2.07.51c2.91.72,3.66,2.46,3.66,4,0,2.61-2.52,4.2-5.43,4.2C229.57,775.2,227,773.61,226.87,770.73Z" />
  <path
     style="fill:#ffffff"
     id="path588"
     d="M247.77,763.14h-3V774.9h-2.61V763.14h-2.52v-2.25h2.52v-5.31h2.61v5.31h3Z" />
  <path
     style="fill:#ffffff"
     id="path590"
     d="M259.68,761.13l-.42,2.46a4.84,4.84,0,0,0-2-.48c-2.79,0-3.9,3-3.9,6.66v5.13h-2.64v-14h2.64v3.18c.71-2.46,2.07-3.48,3.92-3.48A5.26,5.26,0,0,1,259.68,761.13Z" />
  <path
     style="fill:#ffffff"
     id="path592"
     d="M275,769H263.62c.38,2.49,2.19,3.72,4.59,3.72a4.5,4.5,0,0,0,4.07-2.13l2.28.9a7.3,7.3,0,1,1-6.45-10.92c4,0,7,2.82,7,7.26C275.07,768.24,275,768.63,275,769Zm-2.55-2.25a4.47,4.47,0,0,0-8.81,0Z" />
  <path
     style="fill:#ffffff"
     id="path594"
     d="M285.12,763.14h-3V774.9h-2.61V763.14H277v-2.25h2.52v-5.31h2.61v5.31h3Z" />
  <path
     style="fill:#ffffff"
     id="path596"
     d="M286.78,767.88a7.53,7.53,0,0,1,12.87-5.07L298,764.52a5,5,0,0,0-3.6-1.47,4.83,4.83,0,1,0,0,9.66,5,5,0,0,0,3.6-1.47l1.65,1.71a7.08,7.08,0,0,1-5.34,2.22A7.24,7.24,0,0,1,286.78,767.88Z" />
  <path
     style="fill:#ffffff"
     id="path598"
     d="M315.84,766.8v8.1h-2.61V767c0-2.34-1.44-3.78-3.39-3.78a4,4,0,0,0-4.29,4.14v7.59h-2.61V753.24h2.61V763c.85-1.71,3.12-2.43,4.65-2.43C313.68,760.59,315.87,762.87,315.84,766.8Z" />
  <path
     style="fill:#ffffff"
     id="path600"
     d="M331.53,759.06v1.83h3.27v2.25h-3.27V774.9h-2.61V763.14h-2.7v-2.25h2.7v-1.47c0-3.66,1.53-6.18,5.28-6.18h1.5v2.46h-1.05C332.16,755.7,331.5,757.23,331.53,759.06Z" />
  <path
     style="fill:#ffffff"
     id="path602"
     d="M346.65,761.13l-.42,2.46a4.85,4.85,0,0,0-2-.48c-2.79,0-3.9,3-3.9,6.66v5.13h-2.64v-14h2.64v3.18c.72-2.46,2.07-3.48,3.93-3.48A5.29,5.29,0,0,1,346.65,761.13Z" />
  <path
     style="fill:#ffffff"
     id="path604"
     d="M347.88,767.85a7.34,7.34,0,0,1,14.67,0,7.34,7.34,0,1,1-14.67,0Zm12.06,0a4.71,4.71,0,1,0-4.74,4.89A4.71,4.71,0,0,0,359.94,767.85Z" />
  <path
     style="fill:#ffffff"
     id="path606"
     d="M388.23,766.8v8.1h-2.61V767c0-2.34-1.29-3.84-3.33-3.84-2.49,0-4,2.07-3.75,4.77l0-.12v7.14H375.9V767c0-2.37-1.29-3.84-3.15-3.84a3.82,3.82,0,0,0-4,4.2v7.59h-2.61v-14h2.61V763a5.24,5.24,0,0,1,9.12.48,5.19,5.19,0,0,1,4.89-2.91C386.31,760.59,388.23,762.87,388.23,766.8Z" />
  <path
     style="fill:#ffffff"
     id="path608"
     d="M396.21,779.25h1.59c2.31,0,2.64-1.92,2.61-3.57V760.89H403v14.82c0,3.48-1.23,6-5,6h-1.8Zm3.66-23.52a1.85,1.85,0,1,1,1.83,1.74A1.78,1.78,0,0,1,399.87,755.73Z" />
  <path
     style="fill:#ffffff"
     id="path610"
     d="M420.27,760.89v14h-2.61v-2.19c-.84,1.74-3.09,2.49-4.65,2.49-3.51,0-5.67-2.28-5.64-6.21v-8.1H410v8c0,2.34,1.41,3.78,3.36,3.78a4,4,0,0,0,4.32-4.14v-7.59Z" />
  <path
     style="fill:#ffffff"
     id="path612"
     d="M423.69,770.73h2.43c0,1.2,1.08,2.19,2.79,2.19s2.82-.81,2.82-1.95-.81-1.59-1.92-1.83l-1.92-.45c-2.34-.63-3.69-1.77-3.69-4s2-4.08,4.8-4.08c2.37,0,4.83,1.26,4.83,4.08h-2.52a2.11,2.11,0,0,0-2.25-1.8,2,2,0,0,0-2.25,1.89c0,1,.9,1.47,1.8,1.68l2.07.51c2.91.72,3.66,2.46,3.66,4,0,2.61-2.52,4.2-5.43,4.2C426.39,775.2,423.81,773.61,423.69,770.73Z" />
  <path
     style="fill:#ffffff"
     id="path614"
     d="M444.6,763.14h-3V774.9H439V763.14h-2.52v-2.25H439v-5.31h2.61v5.31h3Z" />
  <path
     style="fill:#ffffff"
     id="path616"
     d="M184.78,796.89v14h-2.61v-2.22a5.73,5.73,0,0,1-5,2.52,7.31,7.31,0,0,1,0-14.61,5.59,5.59,0,0,1,5,2.49v-2.19Zm-2.61,7a4.74,4.74,0,0,0-4.77-4.8,4.59,4.59,0,0,0-4.59,4.8,4.68,4.68,0,1,0,9.36,0Z" />
  <path
     style="fill:#ffffff"
     id="path618"
     d="M203.94,803.88a7,7,0,0,1-7,7.32,5.73,5.73,0,0,1-5-2.52v2.22h-2.61V789.24H192v9.84a5.59,5.59,0,0,1,5-2.49A6.9,6.9,0,0,1,203.94,803.88Zm-2.63,0a4.59,4.59,0,0,0-4.62-4.8,4.85,4.85,0,0,0,0,9.69A4.69,4.69,0,0,0,201.31,803.85Z" />
  <path
     style="fill:#ffffff"
     id="path620"
     d="M206.59,803.85a7.33,7.33,0,0,1,14.66,0,7.33,7.33,0,1,1-14.66,0Zm12.06,0a4.71,4.71,0,1,0-4.74,4.89A4.71,4.71,0,0,0,218.65,803.85Z" />
  <path
     style="fill:#ffffff"
     id="path622"
     d="M237.6,796.89v14H235v-2.19c-.85,1.74-3.09,2.49-4.65,2.49-3.51,0-5.67-2.28-5.64-6.21v-8.1h2.61v8c0,2.34,1.41,3.78,3.36,3.78a4,4,0,0,0,4.32-4.14v-7.59Z" />
  <path
     style="fill:#ffffff"
     id="path624"
     d="M248.85,799.14h-3V810.9h-2.61V799.14H240.7v-2.25h2.52v-5.31h2.61v5.31h3Z" />
  <path
     style="fill:#ffffff"
     id="path626"
     d="M273,796.89v14h-2.61v-2.22a5.73,5.73,0,0,1-5,2.52,7.31,7.31,0,0,1,0-14.61,5.58,5.58,0,0,1,5,2.49v-2.19Zm-2.61,7a4.74,4.74,0,0,0-4.77-4.8,4.59,4.59,0,0,0-4.59,4.8,4.68,4.68,0,1,0,9.36,0Z" />
  <path
     style="fill:#ffffff"
     id="path628"
     d="M290.49,802.8v8.1h-2.61V803c0-2.34-1.44-3.78-3.39-3.78a4,4,0,0,0-4.29,4.14v7.59h-2.61v-14h2.61V799c.84-1.71,3.12-2.43,4.65-2.43C288.33,796.59,290.52,798.87,290.49,802.8Z" />
  <path
     style="fill:#ffffff"
     id="path630"
     d="M306.9,796.89l-8.69,20.82h-2.76l2.9-7.2-5.6-13.62h2.82l4.22,10.32,4.29-10.32Z" />
  <path
     style="fill:#ffffff"
     id="path632"
     d="M330.21,796.89l-5.22,14H322.8l-3.86-10.41-3.73,10.41h-2.15l-5.34-14h2.82l3.56,10,3.57-10h2.56l3.59,10,3.57-10Z" />
  <path
     style="fill:#ffffff"
     id="path634"
     d="M345.84,802.8v8.1h-2.61V803c0-2.34-1.44-3.78-3.39-3.78a4,4,0,0,0-4.29,4.14v7.59h-2.61V789.24h2.61V799c.85-1.71,3.12-2.43,4.65-2.43C343.68,796.59,345.87,798.87,345.84,802.8Z" />
  <path
     style="fill:#ffffff"
     id="path636"
     d="M363.33,805H351.94c.38,2.49,2.18,3.72,4.58,3.72a4.51,4.51,0,0,0,4.08-2.13l2.28.9a7.3,7.3,0,1,1-6.45-10.92c4,0,7,2.82,7,7.26C363.39,804.24,363.36,804.63,363.33,805Zm-2.55-2.25a4.09,4.09,0,0,0-4.35-3.72,4.14,4.14,0,0,0-4.47,3.72Z" />
  <path
     style="fill:#ffffff"
     id="path638"
     d="M375.93,797.13l-.42,2.46a4.85,4.85,0,0,0-2-.48c-2.79,0-3.9,3-3.9,6.66v5.13h-2.64v-14h2.64v3.18c.72-2.46,2.07-3.48,3.93-3.48A5.29,5.29,0,0,1,375.93,797.13Z" />
  <path
     style="fill:#ffffff"
     id="path640"
     d="M391.26,805h-11.4a4.24,4.24,0,0,0,4.59,3.72,4.51,4.51,0,0,0,4.08-2.13l2.28.9a7.3,7.3,0,1,1-6.45-10.92c4,0,7,2.82,7,7.26C391.32,804.24,391.29,804.63,391.26,805Zm-2.55-2.25a4.09,4.09,0,0,0-4.35-3.72,4.14,4.14,0,0,0-4.47,3.72Z" />
  <path
     style="fill:#ffffff"
     id="path642"
     d="M831.64,276h48.7c4.78,0,8.38,2.76,9.38,7.2A12.64,12.64,0,0,1,890,286q0,38.32,0,76.66c0,6-3.89,9.89-9.94,9.89H783c-4.89,0-8.57-2.72-9.57-7.12a13.47,13.47,0,0,1-.27-2.84q0-38.44,0-76.88c0-5.76,3.9-9.65,9.69-9.66Zm-55.3,22.55h110.4a3.75,3.75,0,0,0,.09-.56c0-3.87.08-7.73,0-11.59a8.46,8.46,0,0,0-.95-3.54c-1.44-2.73-4-3.67-6.92-3.67H783.76a7.14,7.14,0,0,0-7.42,7.55v11.8Zm72.75,23.94V301.82H814V322.5Zm-72.73,0h34.38V301.82H776.36Zm34.39,3.28H776.39v20.49h34.36Zm76,20.51V325.8H852.4v20.49ZM814,349.59v19.7H849.1v-19.7Zm-3.3,0H776.35c0,.4-.05.74-.05,1.09,0,4,0,8.08,0,12.12s2.46,6.54,6.56,6.54h27.88Zm41.64,19.75h27.89c4.07,0,6.55-2.49,6.56-6.56s0-8.07,0-12.11c0-.35,0-.69-.05-1.08h-34.4Zm-3.29-23.07V325.77H814v20.51Zm3.3-23.78h34.35V301.82H852.39Z" />
  <path
     style="fill:#ffffff"
     id="path644"
     d="M797.52,288.2a5.59,5.59,0,0,1,5.69-5.5,5.63,5.63,0,1,1-5.69,5.5Zm3.18.11a2.49,2.49,0,0,0,2.48,2.51,2.53,2.53,0,0,0,2.44-2.55,2.49,2.49,0,0,0-2.49-2.5A2.46,2.46,0,0,0,800.7,288.31Z" />
  <path
     style="fill:#ffffff"
     id="path646"
     d="M865.63,288.33A5.64,5.64,0,1,1,860,282.7,5.64,5.64,0,0,1,865.63,288.33Zm-3.2,0a2.44,2.44,0,0,0-2.44-2.53,2.52,2.52,0,0,0,0,5A2.46,2.46,0,0,0,862.43,288.3Z" />
  <path
     style="fill:#ffffff"
     id="path648"
     d="M828.71,339.13l10.59-10.26c1.14-1.1,2-1.29,2.74-.58s.61,1.66-.57,2.81q-5.65,5.53-11.33,11c-1.21,1.19-2,1.15-3.1-.12-1.4-1.6-2.79-3.21-4.18-4.81a1.6,1.6,0,0,1-.27-2,1.48,1.48,0,0,1,2.51-.09C826.3,336.38,827.46,337.73,828.71,339.13Z" />
  <path
     style="fill:#ffffff"
     id="path650"
     d="M866.06,315.47c3.67-3.56,7.16-7,10.68-10.35a3,3,0,0,1,1.62-.82,1.56,1.56,0,0,1,1.22.76,2.63,2.63,0,0,1,0,1.57c-.06.27-.39.48-.62.71q-5.61,5.49-11.23,11c-1.47,1.44-2.15,1.41-3.48-.11s-2.53-2.87-3.78-4.31c-.83-1-.88-1.91-.16-2.53s1.67-.48,2.5.43C863.89,313,865,314.22,866.06,315.47Z" />
  <path
     style="fill:#ffffff"
     id="path652"
     d="M1429.68,363.62h-54a6.69,6.69,0,0,1-5-1.56,5.22,5.22,0,0,1-1.81-3.85c0-1.28,0-2.56,0-3.83q0-36.6,0-73.19c0-2.22.52-4.18,2.47-5.28a9,9,0,0,1,4.13-1.09c8.22-.1,16.45-.05,24.67-.05h83.32c.55,0,1.1,0,1.65,0a5.63,5.63,0,0,1,5.6,6q0,18.65,0,37.28c0,13-.1,26,0,39.06a6.21,6.21,0,0,1-6.57,6.52C1466,363.58,1447.86,363.62,1429.68,363.62Zm.14-83.77h-54c-2.47,0-2.88.39-2.88,2.84v72.92c0,2.54.38,2.91,3,2.91h107.87c2.58,0,2.94-.35,2.94-2.91q0-36.47,0-72.92c0-2.47-.38-2.84-2.88-2.84Z" />
  <path
     style="fill:#ffffff"
     id="path654"
     d="M1429.79,366.07h66.33a4.69,4.69,0,0,1,3.87,1.32,3.73,3.73,0,0,1-2,6.21,8.1,8.1,0,0,1-1.77.16q-66.39,0-132.79,0a6.84,6.84,0,0,1-3.53-1.08,3.08,3.08,0,0,1-1.16-3.66,3.75,3.75,0,0,1,3.06-2.8,11.6,11.6,0,0,1,2.05-.1Zm-6.91,5.52h13.84v-3.35h-13.84Z" />
  <circle
     style="fill:#ffffff"
     id="circle656"
     r="3"
     cy="286.55"
     cx="1430" />
</svg>
